<?xml version="1.0" encoding="UTF-8" standalone="no"?>
<!DOCTYPE svg PUBLIC "-//W3C//DTD SVG 1.1//EN"
 "http://www.w3.org/Graphics/SVG/1.1/DTD/svg11.dtd">
<!-- Generated by graphviz version 10.0.1 (20240210.2158)
 -->
<!-- Pages: 1 -->
<svg width="1457pt" height="881pt"
 viewBox="0.00 0.00 1456.75 880.86" xmlns="http://www.w3.org/2000/svg" xmlns:xlink="http://www.w3.org/1999/xlink">
<g id="graph0" class="graph" transform="scale(1 1) rotate(0) translate(4 876.86)">
<polygon fill="white" stroke="none" points="-4,4 -4,-876.86 1452.75,-876.86 1452.75,4 -4,4"/>
<text text-anchor="middle" x="724.38" y="-808.06" font-family="Times,serif" font-size="64.00">Isolation Tree &#45; Leafs count 16, Height Reached 7</text>
<!-- node_14966865696 -->
<g id="node1" class="node">
<title>node_14966865696</title>
<ellipse fill="none" stroke="black" cx="974.62" cy="-763.87" rx="100.41" ry="28.99"/>
<text text-anchor="middle" x="974.62" y="-767.07" font-family="Times,serif" font-size="14.00">inNode# 14, Feature: 0</text>
<text text-anchor="middle" x="974.62" y="-750.57" font-family="Times,serif" font-size="14.00">Value: 652.70</text>
</g>
<!-- node_14966855328 -->
<g id="node2" class="node">
<title>node_14966855328</title>
<ellipse fill="none" stroke="black" cx="865.62" cy="-669.89" rx="100.41" ry="28.99"/>
<text text-anchor="middle" x="865.62" y="-673.09" font-family="Times,serif" font-size="14.00">inNode# 11, Feature: 1</text>
<text text-anchor="middle" x="865.62" y="-656.59" font-family="Times,serif" font-size="14.00">Value: 581.76</text>
</g>
<!-- node_14966865696&#45;&gt;node_14966855328 -->
<g id="edge1" class="edge">
<title>node_14966865696&#45;&gt;node_14966855328</title>
<path fill="none" stroke="black" d="M942.8,-736.02C931.28,-726.29 918.1,-715.17 905.94,-704.91"/>
<polygon fill="black" stroke="black" points="908.35,-702.37 898.45,-698.59 903.84,-707.72 908.35,-702.37"/>
</g>
<!-- node_14966852112 -->
<g id="node27" class="node">
<title>node_14966852112</title>
<ellipse fill="none" stroke="black" cx="1084.62" cy="-669.89" rx="100.41" ry="28.99"/>
<text text-anchor="middle" x="1084.62" y="-673.09" font-family="Times,serif" font-size="14.00">inNode# 13, Feature: 0</text>
<text text-anchor="middle" x="1084.62" y="-656.59" font-family="Times,serif" font-size="14.00">Value: 783.79</text>
</g>
<!-- node_14966865696&#45;&gt;node_14966852112 -->
<g id="edge26" class="edge">
<title>node_14966865696&#45;&gt;node_14966852112</title>
<path fill="none" stroke="black" d="M1006.74,-736.02C1018.37,-726.29 1031.67,-715.17 1043.94,-704.91"/>
<polygon fill="black" stroke="black" points="1046.08,-707.69 1051.5,-698.59 1041.59,-702.32 1046.08,-707.69"/>
</g>
<!-- node_14966856624 -->
<g id="node3" class="node">
<title>node_14966856624</title>
<ellipse fill="none" stroke="black" cx="683.62" cy="-575.91" rx="100.41" ry="28.99"/>
<text text-anchor="middle" x="683.62" y="-579.11" font-family="Times,serif" font-size="14.00">inNode# 10, Feature: 0</text>
<text text-anchor="middle" x="683.62" y="-562.61" font-family="Times,serif" font-size="14.00">Value: 373.46</text>
</g>
<!-- node_14966855328&#45;&gt;node_14966856624 -->
<g id="edge2" class="edge">
<title>node_14966855328&#45;&gt;node_14966856624</title>
<path fill="none" stroke="black" d="M816.85,-644.24C794,-632.69 766.59,-618.84 742.59,-606.7"/>
<polygon fill="black" stroke="black" points="744.39,-603.69 733.88,-602.31 741.23,-609.94 744.39,-603.69"/>
</g>
<!-- node_14966851488 -->
<g id="node26" class="node">
<title>node_14966851488</title>
<polygon fill="none" stroke="black" points="963.38,-596.41 801.88,-596.41 801.88,-555.41 963.38,-555.41 963.38,-596.41"/>
<text text-anchor="middle" x="882.62" y="-579.11" font-family="Times,serif" font-size="14.00">ExNode# 12, h: 2, s: 1</text>
<text text-anchor="middle" x="882.62" y="-562.61" font-family="Times,serif" font-size="14.00">Feature: 1 &gt; Value: 581.76</text>
</g>
<!-- node_14966855328&#45;&gt;node_14966851488 -->
<g id="edge25" class="edge">
<title>node_14966855328&#45;&gt;node_14966851488</title>
<path fill="none" stroke="black" d="M870.86,-640.54C872.76,-630.26 874.92,-618.6 876.86,-608.09"/>
<polygon fill="black" stroke="black" points="880.29,-608.81 878.66,-598.34 873.4,-607.53 880.29,-608.81"/>
</g>
<!-- node_14966857248 -->
<g id="node4" class="node">
<title>node_14966857248</title>
<ellipse fill="none" stroke="black" cx="675.62" cy="-481.92" rx="95.64" ry="28.99"/>
<text text-anchor="middle" x="675.62" y="-485.12" font-family="Times,serif" font-size="14.00">inNode# 8, Feature: 0</text>
<text text-anchor="middle" x="675.62" y="-468.62" font-family="Times,serif" font-size="14.00">Value: &#45;56.06</text>
</g>
<!-- node_14966856624&#45;&gt;node_14966857248 -->
<g id="edge3" class="edge">
<title>node_14966856624&#45;&gt;node_14966857248</title>
<path fill="none" stroke="black" d="M681.16,-546.56C680.51,-539.04 679.79,-530.78 679.09,-522.77"/>
<polygon fill="black" stroke="black" points="682.58,-522.5 678.23,-512.84 675.61,-523.11 682.58,-522.5"/>
</g>
<!-- node_14966851968 -->
<g id="node23" class="node">
<title>node_14966851968</title>
<ellipse fill="none" stroke="black" cx="884.62" cy="-481.92" rx="95.64" ry="28.99"/>
<text text-anchor="middle" x="884.62" y="-485.12" font-family="Times,serif" font-size="14.00">inNode# 9, Feature: 0</text>
<text text-anchor="middle" x="884.62" y="-468.62" font-family="Times,serif" font-size="14.00">Value: 467.74</text>
</g>
<!-- node_14966856624&#45;&gt;node_14966851968 -->
<g id="edge22" class="edge">
<title>node_14966856624&#45;&gt;node_14966851968</title>
<path fill="none" stroke="black" d="M736.17,-550.86C762.58,-538.77 794.75,-524.05 822.38,-511.41"/>
<polygon fill="black" stroke="black" points="823.72,-514.64 831.36,-507.3 820.81,-508.28 823.72,-514.64"/>
</g>
<!-- node_14966855280 -->
<g id="node5" class="node">
<title>node_14966855280</title>
<ellipse fill="none" stroke="black" cx="470.62" cy="-387.94" rx="95.64" ry="28.99"/>
<text text-anchor="middle" x="470.62" y="-391.14" font-family="Times,serif" font-size="14.00">inNode# 5, Feature: 0</text>
<text text-anchor="middle" x="470.62" y="-374.64" font-family="Times,serif" font-size="14.00">Value: &#45;309.86</text>
</g>
<!-- node_14966857248&#45;&gt;node_14966855280 -->
<g id="edge4" class="edge">
<title>node_14966857248&#45;&gt;node_14966855280</title>
<path fill="none" stroke="black" d="M623.1,-457.35C595.73,-445.08 562.08,-429.97 533.35,-417.09"/>
<polygon fill="black" stroke="black" points="534.95,-413.97 524.4,-413.07 532.09,-420.35 534.95,-413.97"/>
</g>
<!-- node_14966857872 -->
<g id="node18" class="node">
<title>node_14966857872</title>
<ellipse fill="none" stroke="black" cx="679.62" cy="-387.94" rx="95.64" ry="28.99"/>
<text text-anchor="middle" x="679.62" y="-391.14" font-family="Times,serif" font-size="14.00">inNode# 7, Feature: 0</text>
<text text-anchor="middle" x="679.62" y="-374.64" font-family="Times,serif" font-size="14.00">Value: 0.73</text>
</g>
<!-- node_14966857248&#45;&gt;node_14966857872 -->
<g id="edge17" class="edge">
<title>node_14966857248&#45;&gt;node_14966857872</title>
<path fill="none" stroke="black" d="M676.86,-452.57C677.18,-445.06 677.54,-436.79 677.89,-428.79"/>
<polygon fill="black" stroke="black" points="681.39,-429.01 678.32,-418.86 674.39,-428.7 681.39,-429.01"/>
</g>
<!-- node_14966768176 -->
<g id="node6" class="node">
<title>node_14966768176</title>
<ellipse fill="none" stroke="black" cx="262.62" cy="-293.96" rx="95.64" ry="28.99"/>
<text text-anchor="middle" x="262.62" y="-297.16" font-family="Times,serif" font-size="14.00">inNode# 0, Feature: 1</text>
<text text-anchor="middle" x="262.62" y="-280.66" font-family="Times,serif" font-size="14.00">Value: 163.52</text>
</g>
<!-- node_14966855280&#45;&gt;node_14966768176 -->
<g id="edge5" class="edge">
<title>node_14966855280&#45;&gt;node_14966768176</title>
<path fill="none" stroke="black" d="M417.6,-363.49C389.61,-351.11 355.07,-335.84 325.7,-322.85"/>
<polygon fill="black" stroke="black" points="327.5,-319.82 316.94,-318.98 324.67,-326.22 327.5,-319.82"/>
</g>
<!-- node_14966864880 -->
<g id="node9" class="node">
<title>node_14966864880</title>
<ellipse fill="none" stroke="black" cx="471.62" cy="-293.96" rx="95.64" ry="28.99"/>
<text text-anchor="middle" x="471.62" y="-297.16" font-family="Times,serif" font-size="14.00">inNode# 4, Feature: 0</text>
<text text-anchor="middle" x="471.62" y="-280.66" font-family="Times,serif" font-size="14.00">Value: &#45;179.34</text>
</g>
<!-- node_14966855280&#45;&gt;node_14966864880 -->
<g id="edge8" class="edge">
<title>node_14966855280&#45;&gt;node_14966864880</title>
<path fill="none" stroke="black" d="M470.93,-358.59C471.01,-351.07 471.1,-342.81 471.19,-334.8"/>
<polygon fill="black" stroke="black" points="474.69,-334.92 471.3,-324.88 467.69,-334.84 474.69,-334.92"/>
</g>
<!-- node_14966778592 -->
<g id="node7" class="node">
<title>node_14966778592</title>
<polygon fill="none" stroke="black" points="165.25,-220.47 0,-220.47 0,-179.47 165.25,-179.47 165.25,-220.47"/>
<text text-anchor="middle" x="82.62" y="-203.17" font-family="Times,serif" font-size="14.00">ExNode# 0, h: 6, s: 1</text>
<text text-anchor="middle" x="82.62" y="-186.67" font-family="Times,serif" font-size="14.00"> Feature: 1 &lt; Value: 163.52</text>
</g>
<!-- node_14966768176&#45;&gt;node_14966778592 -->
<g id="edge6" class="edge">
<title>node_14966768176&#45;&gt;node_14966778592</title>
<path fill="none" stroke="black" d="M214.86,-268.55C189.12,-255.39 157.41,-239.19 131.49,-225.95"/>
<polygon fill="black" stroke="black" points="133.35,-222.97 122.86,-221.53 130.17,-229.2 133.35,-222.97"/>
</g>
<!-- node_14966769760 -->
<g id="node8" class="node">
<title>node_14966769760</title>
<polygon fill="none" stroke="black" points="344.38,-220.47 182.88,-220.47 182.88,-179.47 344.38,-179.47 344.38,-220.47"/>
<text text-anchor="middle" x="263.62" y="-203.17" font-family="Times,serif" font-size="14.00">ExNode# 1, h: 6, s: 1</text>
<text text-anchor="middle" x="263.62" y="-186.67" font-family="Times,serif" font-size="14.00">Feature: 1 &gt; Value: 163.52</text>
</g>
<!-- node_14966768176&#45;&gt;node_14966769760 -->
<g id="edge7" class="edge">
<title>node_14966768176&#45;&gt;node_14966769760</title>
<path fill="none" stroke="black" d="M262.93,-264.61C263.04,-254.33 263.17,-242.67 263.29,-232.16"/>
<polygon fill="black" stroke="black" points="266.78,-232.47 263.39,-222.43 259.78,-232.39 266.78,-232.47"/>
</g>
<!-- node_14966853312 -->
<g id="node10" class="node">
<title>node_14966853312</title>
<ellipse fill="none" stroke="black" cx="463.62" cy="-199.97" rx="95.64" ry="28.99"/>
<text text-anchor="middle" x="463.62" y="-203.17" font-family="Times,serif" font-size="14.00">inNode# 1, Feature: 1</text>
<text text-anchor="middle" x="463.62" y="-186.67" font-family="Times,serif" font-size="14.00">Value: 161.64</text>
</g>
<!-- node_14966864880&#45;&gt;node_14966853312 -->
<g id="edge9" class="edge">
<title>node_14966864880&#45;&gt;node_14966853312</title>
<path fill="none" stroke="black" d="M469.16,-264.61C468.51,-257.09 467.79,-248.83 467.09,-240.82"/>
<polygon fill="black" stroke="black" points="470.58,-240.55 466.23,-230.9 463.61,-241.16 470.58,-240.55"/>
</g>
<!-- node_14966863968 -->
<g id="node13" class="node">
<title>node_14966863968</title>
<ellipse fill="none" stroke="black" cx="672.62" cy="-199.97" rx="95.64" ry="28.99"/>
<text text-anchor="middle" x="672.62" y="-203.17" font-family="Times,serif" font-size="14.00">inNode# 3, Feature: 1</text>
<text text-anchor="middle" x="672.62" y="-186.67" font-family="Times,serif" font-size="14.00">Value: &#45;144.73</text>
</g>
<!-- node_14966864880&#45;&gt;node_14966863968 -->
<g id="edge12" class="edge">
<title>node_14966864880&#45;&gt;node_14966863968</title>
<path fill="none" stroke="black" d="M523.39,-269.27C549.89,-257.14 582.37,-242.28 610.25,-229.52"/>
<polygon fill="black" stroke="black" points="611.68,-232.72 619.31,-225.37 608.76,-226.35 611.68,-232.72"/>
</g>
<!-- node_14966774416 -->
<g id="node11" class="node">
<title>node_14966774416</title>
<polygon fill="none" stroke="black" points="372.25,-126.49 207,-126.49 207,-85.49 372.25,-85.49 372.25,-126.49"/>
<text text-anchor="middle" x="289.62" y="-109.19" font-family="Times,serif" font-size="14.00">ExNode# 2, h: 7, s: 1</text>
<text text-anchor="middle" x="289.62" y="-92.69" font-family="Times,serif" font-size="14.00"> Feature: 1 &lt; Value: 161.64</text>
</g>
<!-- node_14966853312&#45;&gt;node_14966774416 -->
<g id="edge10" class="edge">
<title>node_14966853312&#45;&gt;node_14966774416</title>
<path fill="none" stroke="black" d="M417,-174.32C392.31,-161.28 362.06,-145.28 337.23,-132.16"/>
<polygon fill="black" stroke="black" points="339.12,-129.2 328.64,-127.62 335.84,-135.38 339.12,-129.2"/>
</g>
<!-- node_14966852736 -->
<g id="node12" class="node">
<title>node_14966852736</title>
<polygon fill="none" stroke="black" points="551.38,-126.49 389.88,-126.49 389.88,-85.49 551.38,-85.49 551.38,-126.49"/>
<text text-anchor="middle" x="470.62" y="-109.19" font-family="Times,serif" font-size="14.00">ExNode# 3, h: 7, s: 1</text>
<text text-anchor="middle" x="470.62" y="-92.69" font-family="Times,serif" font-size="14.00">Feature: 1 &gt; Value: 161.64</text>
</g>
<!-- node_14966853312&#45;&gt;node_14966852736 -->
<g id="edge11" class="edge">
<title>node_14966853312&#45;&gt;node_14966852736</title>
<path fill="none" stroke="black" d="M465.78,-170.63C466.56,-160.35 467.45,-148.68 468.25,-138.17"/>
<polygon fill="black" stroke="black" points="471.72,-138.68 468.99,-128.44 464.74,-138.15 471.72,-138.68"/>
</g>
<!-- node_14966864640 -->
<g id="node14" class="node">
<title>node_14966864640</title>
<polygon fill="none" stroke="black" points="751.5,-126.49 581.75,-126.49 581.75,-85.49 751.5,-85.49 751.5,-126.49"/>
<text text-anchor="middle" x="666.62" y="-109.19" font-family="Times,serif" font-size="14.00">ExNode# 4, h: 7, s: 1</text>
<text text-anchor="middle" x="666.62" y="-92.69" font-family="Times,serif" font-size="14.00"> Feature: 1 &lt; Value: &#45;144.73</text>
</g>
<!-- node_14966863968&#45;&gt;node_14966864640 -->
<g id="edge13" class="edge">
<title>node_14966863968&#45;&gt;node_14966864640</title>
<path fill="none" stroke="black" d="M670.78,-170.63C670.11,-160.35 669.34,-148.68 668.66,-138.17"/>
<polygon fill="black" stroke="black" points="672.17,-138.2 668.02,-128.44 665.18,-138.65 672.17,-138.2"/>
</g>
<!-- node_14966859408 -->
<g id="node15" class="node">
<title>node_14966859408</title>
<ellipse fill="none" stroke="black" cx="865.62" cy="-105.99" rx="95.64" ry="28.99"/>
<text text-anchor="middle" x="865.62" y="-109.19" font-family="Times,serif" font-size="14.00">inNode# 2, Feature: 1</text>
<text text-anchor="middle" x="865.62" y="-92.69" font-family="Times,serif" font-size="14.00">Value: &#45;27.94</text>
</g>
<!-- node_14966863968&#45;&gt;node_14966859408 -->
<g id="edge14" class="edge">
<title>node_14966863968&#45;&gt;node_14966859408</title>
<path fill="none" stroke="black" d="M723.08,-174.93C748.13,-162.99 778.57,-148.48 804.89,-135.94"/>
<polygon fill="black" stroke="black" points="806.24,-139.17 813.76,-131.71 803.23,-132.85 806.24,-139.17"/>
</g>
<!-- node_14966863056 -->
<g id="node16" class="node">
<title>node_14966863056</title>
<polygon fill="none" stroke="black" points="857.12,-41 694.12,-41 694.12,0 857.12,0 857.12,-41"/>
<text text-anchor="middle" x="775.62" y="-23.7" font-family="Times,serif" font-size="14.00">ExNode# 5, h: 8, s: 1</text>
<text text-anchor="middle" x="775.62" y="-7.2" font-family="Times,serif" font-size="14.00"> Feature: 1 &lt; Value: &#45;27.94</text>
</g>
<!-- node_14966859408&#45;&gt;node_14966863056 -->
<g id="edge15" class="edge">
<title>node_14966859408&#45;&gt;node_14966863056</title>
<path fill="none" stroke="black" d="M836.65,-78.11C826.62,-68.8 815.36,-58.36 805.27,-49"/>
<polygon fill="black" stroke="black" points="807.94,-46.7 798.23,-42.47 803.18,-51.84 807.94,-46.7"/>
</g>
<!-- node_14966857344 -->
<g id="node17" class="node">
<title>node_14966857344</title>
<polygon fill="none" stroke="black" points="1034.25,-41 875,-41 875,0 1034.25,0 1034.25,-41"/>
<text text-anchor="middle" x="954.62" y="-23.7" font-family="Times,serif" font-size="14.00">ExNode# 6, h: 8, s: 1</text>
<text text-anchor="middle" x="954.62" y="-7.2" font-family="Times,serif" font-size="14.00">Feature: 1 &gt; Value: &#45;27.94</text>
</g>
<!-- node_14966859408&#45;&gt;node_14966857344 -->
<g id="edge16" class="edge">
<title>node_14966859408&#45;&gt;node_14966857344</title>
<path fill="none" stroke="black" d="M894.28,-78.11C904.1,-68.9 915.11,-58.57 925.01,-49.28"/>
<polygon fill="black" stroke="black" points="927.37,-51.87 932.27,-42.48 922.58,-46.76 927.37,-51.87"/>
</g>
<!-- node_14966852016 -->
<g id="node19" class="node">
<title>node_14966852016</title>
<polygon fill="none" stroke="black" points="754.5,-314.46 602.75,-314.46 602.75,-273.46 754.5,-273.46 754.5,-314.46"/>
<text text-anchor="middle" x="678.62" y="-297.16" font-family="Times,serif" font-size="14.00">ExNode# 7, h: 5, s: 1</text>
<text text-anchor="middle" x="678.62" y="-280.66" font-family="Times,serif" font-size="14.00"> Feature: 0 &lt; Value: 0.73</text>
</g>
<!-- node_14966857872&#45;&gt;node_14966852016 -->
<g id="edge18" class="edge">
<title>node_14966857872&#45;&gt;node_14966852016</title>
<path fill="none" stroke="black" d="M679.32,-358.59C679.21,-348.31 679.08,-336.65 678.96,-326.14"/>
<polygon fill="black" stroke="black" points="682.47,-326.37 678.86,-316.41 675.47,-326.45 682.47,-326.37"/>
</g>
<!-- node_14966863488 -->
<g id="node20" class="node">
<title>node_14966863488</title>
<ellipse fill="none" stroke="black" cx="868.62" cy="-293.96" rx="95.64" ry="28.99"/>
<text text-anchor="middle" x="868.62" y="-297.16" font-family="Times,serif" font-size="14.00">inNode# 6, Feature: 0</text>
<text text-anchor="middle" x="868.62" y="-280.66" font-family="Times,serif" font-size="14.00">Value: 15.34</text>
</g>
<!-- node_14966857872&#45;&gt;node_14966863488 -->
<g id="edge19" class="edge">
<title>node_14966857872&#45;&gt;node_14966863488</title>
<path fill="none" stroke="black" d="M729.28,-362.77C753.6,-350.94 783.08,-336.59 808.65,-324.15"/>
<polygon fill="black" stroke="black" points="810.15,-327.31 817.61,-319.78 807.09,-321.01 810.15,-327.31"/>
</g>
<!-- node_14966851248 -->
<g id="node21" class="node">
<title>node_14966851248</title>
<polygon fill="none" stroke="black" points="947.88,-220.47 789.38,-220.47 789.38,-179.47 947.88,-179.47 947.88,-220.47"/>
<text text-anchor="middle" x="868.62" y="-203.17" font-family="Times,serif" font-size="14.00">ExNode# 8, h: 6, s: 1</text>
<text text-anchor="middle" x="868.62" y="-186.67" font-family="Times,serif" font-size="14.00"> Feature: 0 &lt; Value: 15.34</text>
</g>
<!-- node_14966863488&#45;&gt;node_14966851248 -->
<g id="edge20" class="edge">
<title>node_14966863488&#45;&gt;node_14966851248</title>
<path fill="none" stroke="black" d="M868.62,-264.61C868.62,-254.33 868.62,-242.67 868.62,-232.16"/>
<polygon fill="black" stroke="black" points="872.13,-232.43 868.63,-222.43 865.13,-232.43 872.13,-232.43"/>
</g>
<!-- node_14966853216 -->
<g id="node22" class="node">
<title>node_14966853216</title>
<polygon fill="none" stroke="black" points="1121,-220.47 966.25,-220.47 966.25,-179.47 1121,-179.47 1121,-220.47"/>
<text text-anchor="middle" x="1043.62" y="-203.17" font-family="Times,serif" font-size="14.00">ExNode# 9, h: 6, s: 1</text>
<text text-anchor="middle" x="1043.62" y="-186.67" font-family="Times,serif" font-size="14.00">Feature: 0 &gt; Value: 15.34</text>
</g>
<!-- node_14966863488&#45;&gt;node_14966853216 -->
<g id="edge21" class="edge">
<title>node_14966863488&#45;&gt;node_14966853216</title>
<path fill="none" stroke="black" d="M915.52,-268.31C940.35,-255.26 970.78,-239.26 995.75,-226.14"/>
<polygon fill="black" stroke="black" points="997.17,-229.35 1004.39,-221.6 993.91,-223.15 997.17,-229.35"/>
</g>
<!-- node_14966857680 -->
<g id="node24" class="node">
<title>node_14966857680</title>
<polygon fill="none" stroke="black" points="964.25,-408.44 799,-408.44 799,-367.44 964.25,-367.44 964.25,-408.44"/>
<text text-anchor="middle" x="881.62" y="-391.14" font-family="Times,serif" font-size="14.00">ExNode# 10, h: 4, s: 1</text>
<text text-anchor="middle" x="881.62" y="-374.64" font-family="Times,serif" font-size="14.00"> Feature: 0 &lt; Value: 467.74</text>
</g>
<!-- node_14966851968&#45;&gt;node_14966857680 -->
<g id="edge23" class="edge">
<title>node_14966851968&#45;&gt;node_14966857680</title>
<path fill="none" stroke="black" d="M883.7,-452.57C883.37,-442.3 882.98,-430.63 882.64,-420.12"/>
<polygon fill="black" stroke="black" points="886.15,-420.28 882.32,-410.4 879.15,-420.5 886.15,-420.28"/>
</g>
<!-- node_14966858064 -->
<g id="node25" class="node">
<title>node_14966858064</title>
<polygon fill="none" stroke="black" points="1143.38,-408.44 981.88,-408.44 981.88,-367.44 1143.38,-367.44 1143.38,-408.44"/>
<text text-anchor="middle" x="1062.62" y="-391.14" font-family="Times,serif" font-size="14.00">ExNode# 11, h: 4, s: 1</text>
<text text-anchor="middle" x="1062.62" y="-374.64" font-family="Times,serif" font-size="14.00">Feature: 0 &gt; Value: 467.74</text>
</g>
<!-- node_14966851968&#45;&gt;node_14966858064 -->
<g id="edge24" class="edge">
<title>node_14966851968&#45;&gt;node_14966858064</title>
<path fill="none" stroke="black" d="M931.86,-456.51C957.2,-443.42 988.4,-427.3 1013.96,-414.09"/>
<polygon fill="black" stroke="black" points="1015.55,-417.21 1022.83,-409.5 1012.34,-410.99 1015.55,-417.21"/>
</g>
<!-- node_14966849808 -->
<g id="node28" class="node">
<title>node_14966849808</title>
<polygon fill="none" stroke="black" points="1150.25,-596.41 985,-596.41 985,-555.41 1150.25,-555.41 1150.25,-596.41"/>
<text text-anchor="middle" x="1067.62" y="-579.11" font-family="Times,serif" font-size="14.00">ExNode# 13, h: 2, s: 1</text>
<text text-anchor="middle" x="1067.62" y="-562.61" font-family="Times,serif" font-size="14.00"> Feature: 0 &lt; Value: 783.79</text>
</g>
<!-- node_14966852112&#45;&gt;node_14966849808 -->
<g id="edge27" class="edge">
<title>node_14966852112&#45;&gt;node_14966849808</title>
<path fill="none" stroke="black" d="M1079.39,-640.54C1077.49,-630.26 1075.33,-618.6 1073.39,-608.09"/>
<polygon fill="black" stroke="black" points="1076.85,-607.53 1071.59,-598.34 1069.96,-608.81 1076.85,-607.53"/>
</g>
<!-- node_14966860320 -->
<g id="node29" class="node">
<title>node_14966860320</title>
<ellipse fill="none" stroke="black" cx="1268.62" cy="-575.91" rx="100.41" ry="28.99"/>
<text text-anchor="middle" x="1268.62" y="-579.11" font-family="Times,serif" font-size="14.00">inNode# 12, Feature: 1</text>
<text text-anchor="middle" x="1268.62" y="-562.61" font-family="Times,serif" font-size="14.00">Value: 2000.63</text>
</g>
<!-- node_14966852112&#45;&gt;node_14966860320 -->
<g id="edge28" class="edge">
<title>node_14966852112&#45;&gt;node_14966860320</title>
<path fill="none" stroke="black" d="M1133.93,-644.24C1157.13,-632.64 1184.97,-618.72 1209.31,-606.56"/>
<polygon fill="black" stroke="black" points="1210.77,-609.74 1218.15,-602.14 1207.64,-603.48 1210.77,-609.74"/>
</g>
<!-- node_14966863680 -->
<g id="node30" class="node">
<title>node_14966863680</title>
<polygon fill="none" stroke="black" points="1262.62,-502.42 1090.62,-502.42 1090.62,-461.42 1262.62,-461.42 1262.62,-502.42"/>
<text text-anchor="middle" x="1176.62" y="-485.12" font-family="Times,serif" font-size="14.00">ExNode# 14, h: 3, s: 1</text>
<text text-anchor="middle" x="1176.62" y="-468.62" font-family="Times,serif" font-size="14.00"> Feature: 1 &lt; Value: 2000.63</text>
</g>
<!-- node_14966860320&#45;&gt;node_14966863680 -->
<g id="edge29" class="edge">
<title>node_14966860320&#45;&gt;node_14966863680</title>
<path fill="none" stroke="black" d="M1241.52,-547.8C1229.81,-536.09 1216.11,-522.4 1204.33,-510.63"/>
<polygon fill="black" stroke="black" points="1207.15,-508.49 1197.6,-503.89 1202.2,-513.44 1207.15,-508.49"/>
</g>
<!-- node_14966863872 -->
<g id="node31" class="node">
<title>node_14966863872</title>
<polygon fill="none" stroke="black" points="1448.75,-502.42 1280.5,-502.42 1280.5,-461.42 1448.75,-461.42 1448.75,-502.42"/>
<text text-anchor="middle" x="1364.62" y="-485.12" font-family="Times,serif" font-size="14.00">ExNode# 15, h: 3, s: 1</text>
<text text-anchor="middle" x="1364.62" y="-468.62" font-family="Times,serif" font-size="14.00">Feature: 1 &gt; Value: 2000.63</text>
</g>
<!-- node_14966860320&#45;&gt;node_14966863872 -->
<g id="edge30" class="edge">
<title>node_14966860320&#45;&gt;node_14966863872</title>
<path fill="none" stroke="black" d="M1296.91,-547.8C1309.13,-536.09 1323.42,-522.4 1335.71,-510.63"/>
<polygon fill="black" stroke="black" points="1337.96,-513.32 1342.76,-503.87 1333.12,-508.26 1337.96,-513.32"/>
</g>
</g>
</svg>
