<?xml version="1.0" encoding="UTF-8" standalone="no"?>
<!DOCTYPE svg PUBLIC "-//W3C//DTD SVG 1.1//EN"
 "http://www.w3.org/Graphics/SVG/1.1/DTD/svg11.dtd">
<!-- Generated by graphviz version 10.0.1 (20240210.2158)
 -->
<!-- Pages: 1 -->
<svg width="1682pt" height="787pt"
 viewBox="0.00 0.00 1681.88 786.88" xmlns="http://www.w3.org/2000/svg" xmlns:xlink="http://www.w3.org/1999/xlink">
<g id="graph0" class="graph" transform="scale(1 1) rotate(0) translate(4 782.88)">
<polygon fill="white" stroke="none" points="-4,4 -4,-782.88 1677.88,-782.88 1677.88,4 -4,4"/>
<text text-anchor="middle" x="836.94" y="-714.08" font-family="Times,serif" font-size="64.00">Isolation Tree &#45; Leafs count 16, Height Reached 6</text>
<!-- node_6413779024 -->
<g id="node1" class="node">
<title>node_6413779024</title>
<ellipse fill="none" stroke="black" cx="383.5" cy="-669.89" rx="100.41" ry="28.99"/>
<text text-anchor="middle" x="383.5" y="-673.09" font-family="Times,serif" font-size="14.00">inNode# 14, Feature: 1</text>
<text text-anchor="middle" x="383.5" y="-656.59" font-family="Times,serif" font-size="14.00">Value: &#45;2.02</text>
</g>
<!-- node_14320982624 -->
<g id="node2" class="node">
<title>node_14320982624</title>
<ellipse fill="none" stroke="black" cx="276.5" cy="-575.91" rx="95.64" ry="28.99"/>
<text text-anchor="middle" x="276.5" y="-579.11" font-family="Times,serif" font-size="14.00">inNode# 1, Feature: 0</text>
<text text-anchor="middle" x="276.5" y="-562.61" font-family="Times,serif" font-size="14.00">Value: &#45;45.52</text>
</g>
<!-- node_6413779024&#45;&gt;node_14320982624 -->
<g id="edge1" class="edge">
<title>node_6413779024&#45;&gt;node_14320982624</title>
<path fill="none" stroke="black" d="M352.26,-642.04C340.95,-632.31 328.01,-621.19 316.07,-610.92"/>
<polygon fill="black" stroke="black" points="318.6,-608.48 308.74,-604.62 314.04,-613.79 318.6,-608.48"/>
</g>
<!-- node_6413790256 -->
<g id="node7" class="node">
<title>node_6413790256</title>
<ellipse fill="none" stroke="black" cx="582.5" cy="-575.91" rx="100.41" ry="28.99"/>
<text text-anchor="middle" x="582.5" y="-579.11" font-family="Times,serif" font-size="14.00">inNode# 13, Feature: 1</text>
<text text-anchor="middle" x="582.5" y="-562.61" font-family="Times,serif" font-size="14.00">Value: 30.03</text>
</g>
<!-- node_6413779024&#45;&gt;node_6413790256 -->
<g id="edge6" class="edge">
<title>node_6413779024&#45;&gt;node_6413790256</title>
<path fill="none" stroke="black" d="M435.78,-644.72C461.62,-632.78 492.98,-618.28 520.07,-605.76"/>
<polygon fill="black" stroke="black" points="521.24,-609.08 528.85,-601.71 518.3,-602.72 521.24,-609.08"/>
</g>
<!-- node_14320992224 -->
<g id="node3" class="node">
<title>node_14320992224</title>
<polygon fill="none" stroke="black" points="163,-502.42 0,-502.42 0,-461.42 163,-461.42 163,-502.42"/>
<text text-anchor="middle" x="81.5" y="-485.12" font-family="Times,serif" font-size="14.00">ExNode# 0, h: 2, s: 1</text>
<text text-anchor="middle" x="81.5" y="-468.62" font-family="Times,serif" font-size="14.00"> Feature: 0 &lt; Value: &#45;45.52</text>
</g>
<!-- node_14320982624&#45;&gt;node_14320992224 -->
<g id="edge2" class="edge">
<title>node_14320982624&#45;&gt;node_14320992224</title>
<path fill="none" stroke="black" d="M225.78,-550.98C197.53,-537.66 162.43,-521.1 133.92,-507.65"/>
<polygon fill="black" stroke="black" points="135.65,-504.59 125.11,-503.49 132.66,-510.92 135.65,-504.59"/>
</g>
<!-- node_14320978064 -->
<g id="node4" class="node">
<title>node_14320978064</title>
<ellipse fill="none" stroke="black" cx="276.5" cy="-481.92" rx="95.64" ry="28.99"/>
<text text-anchor="middle" x="276.5" y="-485.12" font-family="Times,serif" font-size="14.00">inNode# 0, Feature: 0</text>
<text text-anchor="middle" x="276.5" y="-468.62" font-family="Times,serif" font-size="14.00">Value: &#45;1.55</text>
</g>
<!-- node_14320982624&#45;&gt;node_14320978064 -->
<g id="edge3" class="edge">
<title>node_14320982624&#45;&gt;node_14320978064</title>
<path fill="none" stroke="black" d="M276.5,-546.56C276.5,-539.04 276.5,-530.78 276.5,-522.77"/>
<polygon fill="black" stroke="black" points="280,-522.85 276.5,-512.85 273,-522.85 280,-522.85"/>
</g>
<!-- node_14320982000 -->
<g id="node5" class="node">
<title>node_14320982000</title>
<polygon fill="none" stroke="black" points="182.62,-408.44 26.38,-408.44 26.38,-367.44 182.62,-367.44 182.62,-408.44"/>
<text text-anchor="middle" x="104.5" y="-391.14" font-family="Times,serif" font-size="14.00">ExNode# 1, h: 3, s: 1</text>
<text text-anchor="middle" x="104.5" y="-374.64" font-family="Times,serif" font-size="14.00"> Feature: 0 &lt; Value: &#45;1.55</text>
</g>
<!-- node_14320978064&#45;&gt;node_14320982000 -->
<g id="edge4" class="edge">
<title>node_14320978064&#45;&gt;node_14320982000</title>
<path fill="none" stroke="black" d="M230.41,-456.27C206.11,-443.28 176.36,-427.37 151.88,-414.28"/>
<polygon fill="black" stroke="black" points="153.55,-411.2 143.08,-409.57 150.25,-417.37 153.55,-411.2"/>
</g>
<!-- node_14320987760 -->
<g id="node6" class="node">
<title>node_14320987760</title>
<polygon fill="none" stroke="black" points="352.75,-408.44 200.25,-408.44 200.25,-367.44 352.75,-367.44 352.75,-408.44"/>
<text text-anchor="middle" x="276.5" y="-391.14" font-family="Times,serif" font-size="14.00">ExNode# 2, h: 3, s: 1</text>
<text text-anchor="middle" x="276.5" y="-374.64" font-family="Times,serif" font-size="14.00">Feature: 0 &gt; Value: &#45;1.55</text>
</g>
<!-- node_14320978064&#45;&gt;node_14320987760 -->
<g id="edge5" class="edge">
<title>node_14320978064&#45;&gt;node_14320987760</title>
<path fill="none" stroke="black" d="M276.5,-452.57C276.5,-442.3 276.5,-430.63 276.5,-420.12"/>
<polygon fill="black" stroke="black" points="280,-420.4 276.5,-410.4 273,-420.4 280,-420.4"/>
</g>
<!-- node_6413917392 -->
<g id="node8" class="node">
<title>node_6413917392</title>
<ellipse fill="none" stroke="black" cx="582.5" cy="-481.92" rx="95.64" ry="28.99"/>
<text text-anchor="middle" x="582.5" y="-485.12" font-family="Times,serif" font-size="14.00">inNode# 4, Feature: 0</text>
<text text-anchor="middle" x="582.5" y="-468.62" font-family="Times,serif" font-size="14.00">Value: &#45;36.97</text>
</g>
<!-- node_6413790256&#45;&gt;node_6413917392 -->
<g id="edge7" class="edge">
<title>node_6413790256&#45;&gt;node_6413917392</title>
<path fill="none" stroke="black" d="M582.5,-546.56C582.5,-539.04 582.5,-530.78 582.5,-522.77"/>
<polygon fill="black" stroke="black" points="586,-522.85 582.5,-512.85 579,-522.85 586,-522.85"/>
</g>
<!-- node_6413784832 -->
<g id="node15" class="node">
<title>node_6413784832</title>
<ellipse fill="none" stroke="black" cx="1097.5" cy="-481.92" rx="100.41" ry="28.99"/>
<text text-anchor="middle" x="1097.5" y="-485.12" font-family="Times,serif" font-size="14.00">inNode# 12, Feature: 0</text>
<text text-anchor="middle" x="1097.5" y="-468.62" font-family="Times,serif" font-size="14.00">Value: &#45;6.78</text>
</g>
<!-- node_6413790256&#45;&gt;node_6413784832 -->
<g id="edge14" class="edge">
<title>node_6413790256&#45;&gt;node_6413784832</title>
<path fill="none" stroke="black" d="M666.97,-559.82C758.92,-543.4 905.67,-517.19 1001.81,-500.01"/>
<polygon fill="black" stroke="black" points="1002.27,-503.49 1011.5,-498.28 1001.04,-496.6 1002.27,-503.49"/>
</g>
<!-- node_6413923248 -->
<g id="node9" class="node">
<title>node_6413923248</title>
<ellipse fill="none" stroke="black" cx="466.5" cy="-387.94" rx="95.64" ry="28.99"/>
<text text-anchor="middle" x="466.5" y="-391.14" font-family="Times,serif" font-size="14.00">inNode# 2, Feature: 0</text>
<text text-anchor="middle" x="466.5" y="-374.64" font-family="Times,serif" font-size="14.00">Value: &#45;38.62</text>
</g>
<!-- node_6413917392&#45;&gt;node_6413923248 -->
<g id="edge8" class="edge">
<title>node_6413917392&#45;&gt;node_6413923248</title>
<path fill="none" stroke="black" d="M548.95,-454.32C536.44,-444.4 522.08,-433.02 508.89,-422.55"/>
<polygon fill="black" stroke="black" points="511.17,-419.9 501.16,-416.43 506.82,-425.38 511.17,-419.9"/>
</g>
<!-- node_6413914320 -->
<g id="node12" class="node">
<title>node_6413914320</title>
<ellipse fill="none" stroke="black" cx="675.5" cy="-387.94" rx="95.64" ry="28.99"/>
<text text-anchor="middle" x="675.5" y="-391.14" font-family="Times,serif" font-size="14.00">inNode# 3, Feature: 1</text>
<text text-anchor="middle" x="675.5" y="-374.64" font-family="Times,serif" font-size="14.00">Value: 25.71</text>
</g>
<!-- node_6413917392&#45;&gt;node_6413914320 -->
<g id="edge11" class="edge">
<title>node_6413917392&#45;&gt;node_6413914320</title>
<path fill="none" stroke="black" d="M609.9,-453.82C619.28,-444.55 629.91,-434.03 639.84,-424.21"/>
<polygon fill="black" stroke="black" points="642.25,-426.75 646.9,-417.23 637.33,-421.77 642.25,-426.75"/>
</g>
<!-- node_6428912160 -->
<g id="node10" class="node">
<title>node_6428912160</title>
<polygon fill="none" stroke="black" points="369,-314.46 206,-314.46 206,-273.46 369,-273.46 369,-314.46"/>
<text text-anchor="middle" x="287.5" y="-297.16" font-family="Times,serif" font-size="14.00">ExNode# 3, h: 4, s: 1</text>
<text text-anchor="middle" x="287.5" y="-280.66" font-family="Times,serif" font-size="14.00"> Feature: 0 &lt; Value: &#45;38.62</text>
</g>
<!-- node_6413923248&#45;&gt;node_6428912160 -->
<g id="edge9" class="edge">
<title>node_6413923248&#45;&gt;node_6428912160</title>
<path fill="none" stroke="black" d="M419,-362.53C393.4,-349.38 361.87,-333.17 336.1,-319.93"/>
<polygon fill="black" stroke="black" points="338.01,-316.98 327.51,-315.52 334.81,-323.2 338.01,-316.98"/>
</g>
<!-- node_6413910432 -->
<g id="node11" class="node">
<title>node_6413910432</title>
<polygon fill="none" stroke="black" points="546.12,-314.46 386.88,-314.46 386.88,-273.46 546.12,-273.46 546.12,-314.46"/>
<text text-anchor="middle" x="466.5" y="-297.16" font-family="Times,serif" font-size="14.00">ExNode# 4, h: 4, s: 1</text>
<text text-anchor="middle" x="466.5" y="-280.66" font-family="Times,serif" font-size="14.00">Feature: 0 &gt; Value: &#45;38.62</text>
</g>
<!-- node_6413923248&#45;&gt;node_6413910432 -->
<g id="edge10" class="edge">
<title>node_6413923248&#45;&gt;node_6413910432</title>
<path fill="none" stroke="black" d="M466.5,-358.59C466.5,-348.31 466.5,-336.65 466.5,-326.14"/>
<polygon fill="black" stroke="black" points="470,-326.41 466.5,-316.41 463,-326.41 470,-326.41"/>
</g>
<!-- node_6413916384 -->
<g id="node13" class="node">
<title>node_6413916384</title>
<polygon fill="none" stroke="black" points="722.75,-314.46 564.25,-314.46 564.25,-273.46 722.75,-273.46 722.75,-314.46"/>
<text text-anchor="middle" x="643.5" y="-297.16" font-family="Times,serif" font-size="14.00">ExNode# 5, h: 4, s: 1</text>
<text text-anchor="middle" x="643.5" y="-280.66" font-family="Times,serif" font-size="14.00"> Feature: 1 &lt; Value: 25.71</text>
</g>
<!-- node_6413914320&#45;&gt;node_6413916384 -->
<g id="edge12" class="edge">
<title>node_6413914320&#45;&gt;node_6413916384</title>
<path fill="none" stroke="black" d="M665.73,-358.84C662.04,-348.25 657.84,-336.17 654.08,-325.38"/>
<polygon fill="black" stroke="black" points="657.46,-324.45 650.87,-316.15 650.85,-326.75 657.46,-324.45"/>
</g>
<!-- node_6413912256 -->
<g id="node14" class="node">
<title>node_6413912256</title>
<polygon fill="none" stroke="black" points="895.88,-314.46 741.12,-314.46 741.12,-273.46 895.88,-273.46 895.88,-314.46"/>
<text text-anchor="middle" x="818.5" y="-297.16" font-family="Times,serif" font-size="14.00">ExNode# 6, h: 4, s: 1</text>
<text text-anchor="middle" x="818.5" y="-280.66" font-family="Times,serif" font-size="14.00">Feature: 1 &gt; Value: 25.71</text>
</g>
<!-- node_6413914320&#45;&gt;node_6413912256 -->
<g id="edge13" class="edge">
<title>node_6413914320&#45;&gt;node_6413912256</title>
<path fill="none" stroke="black" d="M715.33,-361.32C734.85,-348.77 758.3,-333.68 777.91,-321.06"/>
<polygon fill="black" stroke="black" points="779.7,-324.08 786.21,-315.72 775.91,-318.19 779.7,-324.08"/>
</g>
<!-- node_6429058032 -->
<g id="node16" class="node">
<title>node_6429058032</title>
<ellipse fill="none" stroke="black" cx="1097.5" cy="-387.94" rx="95.64" ry="28.99"/>
<text text-anchor="middle" x="1097.5" y="-391.14" font-family="Times,serif" font-size="14.00">inNode# 9, Feature: 0</text>
<text text-anchor="middle" x="1097.5" y="-374.64" font-family="Times,serif" font-size="14.00">Value: &#45;12.83</text>
</g>
<!-- node_6413784832&#45;&gt;node_6429058032 -->
<g id="edge15" class="edge">
<title>node_6413784832&#45;&gt;node_6429058032</title>
<path fill="none" stroke="black" d="M1097.5,-452.57C1097.5,-445.06 1097.5,-436.79 1097.5,-428.79"/>
<polygon fill="black" stroke="black" points="1101,-428.87 1097.5,-418.87 1094,-428.87 1101,-428.87"/>
</g>
<!-- node_6413790544 -->
<g id="node27" class="node">
<title>node_6413790544</title>
<ellipse fill="none" stroke="black" cx="1400.5" cy="-387.94" rx="100.41" ry="28.99"/>
<text text-anchor="middle" x="1400.5" y="-391.14" font-family="Times,serif" font-size="14.00">inNode# 11, Feature: 1</text>
<text text-anchor="middle" x="1400.5" y="-374.64" font-family="Times,serif" font-size="14.00">Value: 55.12</text>
</g>
<!-- node_6413784832&#45;&gt;node_6413790544 -->
<g id="edge26" class="edge">
<title>node_6413784832&#45;&gt;node_6413790544</title>
<path fill="none" stroke="black" d="M1165.5,-460.28C1211.81,-446.22 1273.26,-427.57 1321.71,-412.86"/>
<polygon fill="black" stroke="black" points="1322.47,-416.29 1331.02,-410.03 1320.43,-409.59 1322.47,-416.29"/>
</g>
<!-- node_6429058848 -->
<g id="node17" class="node">
<title>node_6429058848</title>
<ellipse fill="none" stroke="black" cx="1009.5" cy="-293.96" rx="95.64" ry="28.99"/>
<text text-anchor="middle" x="1009.5" y="-297.16" font-family="Times,serif" font-size="14.00">inNode# 8, Feature: 1</text>
<text text-anchor="middle" x="1009.5" y="-280.66" font-family="Times,serif" font-size="14.00">Value: 40.41</text>
</g>
<!-- node_6429058032&#45;&gt;node_6429058848 -->
<g id="edge16" class="edge">
<title>node_6429058032&#45;&gt;node_6429058848</title>
<path fill="none" stroke="black" d="M1071.57,-359.84C1062.7,-350.57 1052.64,-340.05 1043.24,-330.23"/>
<polygon fill="black" stroke="black" points="1046.03,-328.08 1036.59,-323.28 1040.98,-332.92 1046.03,-328.08"/>
</g>
<!-- node_6429060960 -->
<g id="node26" class="node">
<title>node_6429060960</title>
<polygon fill="none" stroke="black" points="1282.12,-314.46 1122.88,-314.46 1122.88,-273.46 1282.12,-273.46 1282.12,-314.46"/>
<text text-anchor="middle" x="1202.5" y="-297.16" font-family="Times,serif" font-size="14.00">ExNode# 12, h: 4, s: 1</text>
<text text-anchor="middle" x="1202.5" y="-280.66" font-family="Times,serif" font-size="14.00">Feature: 0 &gt; Value: &#45;12.83</text>
</g>
<!-- node_6429058032&#45;&gt;node_6429060960 -->
<g id="edge25" class="edge">
<title>node_6429058032&#45;&gt;node_6429060960</title>
<path fill="none" stroke="black" d="M1128.15,-360.09C1141.76,-348.17 1157.75,-334.16 1171.4,-322.2"/>
<polygon fill="black" stroke="black" points="1173.64,-324.89 1178.85,-315.67 1169.03,-319.63 1173.64,-324.89"/>
</g>
<!-- node_6413912016 -->
<g id="node18" class="node">
<title>node_6413912016</title>
<ellipse fill="none" stroke="black" cx="855.5" cy="-199.97" rx="95.64" ry="28.99"/>
<text text-anchor="middle" x="855.5" y="-203.17" font-family="Times,serif" font-size="14.00">inNode# 5, Feature: 0</text>
<text text-anchor="middle" x="855.5" y="-186.67" font-family="Times,serif" font-size="14.00">Value: &#45;40.55</text>
</g>
<!-- node_6429058848&#45;&gt;node_6413912016 -->
<g id="edge17" class="edge">
<title>node_6429058848&#45;&gt;node_6413912016</title>
<path fill="none" stroke="black" d="M967.01,-267.58C948.66,-256.62 927.02,-243.69 907.71,-232.16"/>
<polygon fill="black" stroke="black" points="909.53,-229.17 899.15,-227.05 905.94,-235.18 909.53,-229.17"/>
</g>
<!-- node_6429064512 -->
<g id="node21" class="node">
<title>node_6429064512</title>
<ellipse fill="none" stroke="black" cx="1064.5" cy="-199.97" rx="95.64" ry="28.99"/>
<text text-anchor="middle" x="1064.5" y="-203.17" font-family="Times,serif" font-size="14.00">inNode# 7, Feature: 1</text>
<text text-anchor="middle" x="1064.5" y="-186.67" font-family="Times,serif" font-size="14.00">Value: 46.79</text>
</g>
<!-- node_6429058848&#45;&gt;node_6429064512 -->
<g id="edge20" class="edge">
<title>node_6429058848&#45;&gt;node_6429064512</title>
<path fill="none" stroke="black" d="M1026,-265.36C1031.01,-256.98 1036.61,-247.62 1041.95,-238.69"/>
<polygon fill="black" stroke="black" points="1044.91,-240.55 1047.04,-230.17 1038.91,-236.96 1044.91,-240.55"/>
</g>
<!-- node_6413911488 -->
<g id="node19" class="node">
<title>node_6413911488</title>
<polygon fill="none" stroke="black" points="766,-126.49 603,-126.49 603,-85.49 766,-85.49 766,-126.49"/>
<text text-anchor="middle" x="684.5" y="-109.19" font-family="Times,serif" font-size="14.00">ExNode# 7, h: 6, s: 1</text>
<text text-anchor="middle" x="684.5" y="-92.69" font-family="Times,serif" font-size="14.00"> Feature: 0 &lt; Value: &#45;40.55</text>
</g>
<!-- node_6413912016&#45;&gt;node_6413911488 -->
<g id="edge18" class="edge">
<title>node_6413912016&#45;&gt;node_6413911488</title>
<path fill="none" stroke="black" d="M809.68,-174.32C785.52,-161.33 755.95,-145.42 731.61,-132.33"/>
<polygon fill="black" stroke="black" points="733.32,-129.28 722.86,-127.63 730.01,-135.45 733.32,-129.28"/>
</g>
<!-- node_6413921856 -->
<g id="node20" class="node">
<title>node_6413921856</title>
<polygon fill="none" stroke="black" points="943.12,-126.49 783.88,-126.49 783.88,-85.49 943.12,-85.49 943.12,-126.49"/>
<text text-anchor="middle" x="863.5" y="-109.19" font-family="Times,serif" font-size="14.00">ExNode# 8, h: 6, s: 1</text>
<text text-anchor="middle" x="863.5" y="-92.69" font-family="Times,serif" font-size="14.00">Feature: 0 &gt; Value: &#45;40.55</text>
</g>
<!-- node_6413912016&#45;&gt;node_6413921856 -->
<g id="edge19" class="edge">
<title>node_6413912016&#45;&gt;node_6413921856</title>
<path fill="none" stroke="black" d="M857.97,-170.63C858.86,-160.35 859.87,-148.68 860.79,-138.17"/>
<polygon fill="black" stroke="black" points="864.25,-138.71 861.63,-128.44 857.28,-138.1 864.25,-138.71"/>
</g>
<!-- node_6413923728 -->
<g id="node22" class="node">
<title>node_6413923728</title>
<polygon fill="none" stroke="black" points="1135.75,-126.49 977.25,-126.49 977.25,-85.49 1135.75,-85.49 1135.75,-126.49"/>
<text text-anchor="middle" x="1056.5" y="-109.19" font-family="Times,serif" font-size="14.00">ExNode# 9, h: 6, s: 1</text>
<text text-anchor="middle" x="1056.5" y="-92.69" font-family="Times,serif" font-size="14.00"> Feature: 1 &lt; Value: 46.79</text>
</g>
<!-- node_6429064512&#45;&gt;node_6413923728 -->
<g id="edge21" class="edge">
<title>node_6429064512&#45;&gt;node_6413923728</title>
<path fill="none" stroke="black" d="M1062.03,-170.63C1061.14,-160.35 1060.13,-148.68 1059.21,-138.17"/>
<polygon fill="black" stroke="black" points="1062.72,-138.1 1058.37,-128.44 1055.75,-138.71 1062.72,-138.1"/>
</g>
<!-- node_6429051888 -->
<g id="node23" class="node">
<title>node_6429051888</title>
<ellipse fill="none" stroke="black" cx="1249.5" cy="-105.99" rx="95.64" ry="28.99"/>
<text text-anchor="middle" x="1249.5" y="-109.19" font-family="Times,serif" font-size="14.00">inNode# 6, Feature: 0</text>
<text text-anchor="middle" x="1249.5" y="-92.69" font-family="Times,serif" font-size="14.00">Value: &#45;19.84</text>
</g>
<!-- node_6429064512&#45;&gt;node_6429051888 -->
<g id="edge22" class="edge">
<title>node_6429064512&#45;&gt;node_6429051888</title>
<path fill="none" stroke="black" d="M1113.11,-174.81C1136.82,-163.02 1165.54,-148.74 1190.5,-136.33"/>
<polygon fill="black" stroke="black" points="1191.82,-139.58 1199.22,-131.99 1188.71,-133.31 1191.82,-139.58"/>
</g>
<!-- node_6413911392 -->
<g id="node24" class="node">
<title>node_6413911392</title>
<polygon fill="none" stroke="black" points="1241,-41 1078,-41 1078,0 1241,0 1241,-41"/>
<text text-anchor="middle" x="1159.5" y="-23.7" font-family="Times,serif" font-size="14.00">ExNode# 10, h: 7, s: 1</text>
<text text-anchor="middle" x="1159.5" y="-7.2" font-family="Times,serif" font-size="14.00"> Feature: 0 &lt; Value: &#45;19.84</text>
</g>
<!-- node_6429051888&#45;&gt;node_6413911392 -->
<g id="edge23" class="edge">
<title>node_6429051888&#45;&gt;node_6413911392</title>
<path fill="none" stroke="black" d="M1220.53,-78.11C1210.49,-68.8 1199.23,-58.36 1189.14,-49"/>
<polygon fill="black" stroke="black" points="1191.82,-46.7 1182.1,-42.47 1187.06,-51.84 1191.82,-46.7"/>
</g>
<!-- node_6413916240 -->
<g id="node25" class="node">
<title>node_6413916240</title>
<polygon fill="none" stroke="black" points="1418.12,-41 1258.88,-41 1258.88,0 1418.12,0 1418.12,-41"/>
<text text-anchor="middle" x="1338.5" y="-23.7" font-family="Times,serif" font-size="14.00">ExNode# 11, h: 7, s: 1</text>
<text text-anchor="middle" x="1338.5" y="-7.2" font-family="Times,serif" font-size="14.00">Feature: 0 &gt; Value: &#45;19.84</text>
</g>
<!-- node_6429051888&#45;&gt;node_6413916240 -->
<g id="edge24" class="edge">
<title>node_6429051888&#45;&gt;node_6413916240</title>
<path fill="none" stroke="black" d="M1278.15,-78.11C1287.98,-68.9 1298.99,-58.57 1308.89,-49.28"/>
<polygon fill="black" stroke="black" points="1311.24,-51.87 1316.14,-42.48 1306.45,-46.76 1311.24,-51.87"/>
</g>
<!-- node_6062182464 -->
<g id="node28" class="node">
<title>node_6062182464</title>
<ellipse fill="none" stroke="black" cx="1400.5" cy="-293.96" rx="100.41" ry="28.99"/>
<text text-anchor="middle" x="1400.5" y="-297.16" font-family="Times,serif" font-size="14.00">inNode# 10, Feature: 1</text>
<text text-anchor="middle" x="1400.5" y="-280.66" font-family="Times,serif" font-size="14.00">Value: 39.20</text>
</g>
<!-- node_6413790544&#45;&gt;node_6062182464 -->
<g id="edge27" class="edge">
<title>node_6413790544&#45;&gt;node_6062182464</title>
<path fill="none" stroke="black" d="M1400.5,-358.59C1400.5,-351.07 1400.5,-342.81 1400.5,-334.8"/>
<polygon fill="black" stroke="black" points="1404,-334.88 1400.5,-324.88 1397,-334.88 1404,-334.88"/>
</g>
<!-- node_6413785072 -->
<g id="node31" class="node">
<title>node_6413785072</title>
<polygon fill="none" stroke="black" points="1673.88,-314.46 1519.12,-314.46 1519.12,-273.46 1673.88,-273.46 1673.88,-314.46"/>
<text text-anchor="middle" x="1596.5" y="-297.16" font-family="Times,serif" font-size="14.00">ExNode# 15, h: 4, s: 1</text>
<text text-anchor="middle" x="1596.5" y="-280.66" font-family="Times,serif" font-size="14.00">Feature: 1 &gt; Value: 55.12</text>
</g>
<!-- node_6413790544&#45;&gt;node_6413785072 -->
<g id="edge30" class="edge">
<title>node_6413790544&#45;&gt;node_6413785072</title>
<path fill="none" stroke="black" d="M1452.25,-362.65C1480.54,-349.38 1515.49,-332.98 1543.9,-319.64"/>
<polygon fill="black" stroke="black" points="1545.11,-322.94 1552.68,-315.52 1542.14,-316.6 1545.11,-322.94"/>
</g>
<!-- node_6429061392 -->
<g id="node29" class="node">
<title>node_6429061392</title>
<polygon fill="none" stroke="black" points="1391.75,-220.47 1233.25,-220.47 1233.25,-179.47 1391.75,-179.47 1391.75,-220.47"/>
<text text-anchor="middle" x="1312.5" y="-203.17" font-family="Times,serif" font-size="14.00">ExNode# 13, h: 5, s: 1</text>
<text text-anchor="middle" x="1312.5" y="-186.67" font-family="Times,serif" font-size="14.00"> Feature: 1 &lt; Value: 39.20</text>
</g>
<!-- node_6062182464&#45;&gt;node_6429061392 -->
<g id="edge28" class="edge">
<title>node_6062182464&#45;&gt;node_6429061392</title>
<path fill="none" stroke="black" d="M1374.57,-265.86C1363.48,-254.26 1350.52,-240.72 1339.33,-229.02"/>
<polygon fill="black" stroke="black" points="1342.03,-226.78 1332.59,-221.97 1336.97,-231.62 1342.03,-226.78"/>
</g>
<!-- node_6429060528 -->
<g id="node30" class="node">
<title>node_6429060528</title>
<polygon fill="none" stroke="black" points="1564.88,-220.47 1410.12,-220.47 1410.12,-179.47 1564.88,-179.47 1564.88,-220.47"/>
<text text-anchor="middle" x="1487.5" y="-203.17" font-family="Times,serif" font-size="14.00">ExNode# 14, h: 5, s: 1</text>
<text text-anchor="middle" x="1487.5" y="-186.67" font-family="Times,serif" font-size="14.00">Feature: 1 &gt; Value: 39.20</text>
</g>
<!-- node_6062182464&#45;&gt;node_6429060528 -->
<g id="edge29" class="edge">
<title>node_6062182464&#45;&gt;node_6429060528</title>
<path fill="none" stroke="black" d="M1426.13,-265.86C1437.1,-254.26 1449.91,-240.72 1460.98,-229.02"/>
<polygon fill="black" stroke="black" points="1463.31,-231.65 1467.64,-221.98 1458.22,-226.84 1463.31,-231.65"/>
</g>
</g>
</svg>
