<?xml version="1.0" encoding="UTF-8" standalone="no"?>
<!DOCTYPE svg PUBLIC "-//W3C//DTD SVG 1.1//EN"
 "http://www.w3.org/Graphics/SVG/1.1/DTD/svg11.dtd">
<!-- Generated by graphviz version 10.0.1 (20240210.2158)
 -->
<!-- Pages: 1 -->
<svg width="1857pt" height="679pt"
 viewBox="0.00 0.00 1856.62 679.42" xmlns="http://www.w3.org/2000/svg" xmlns:xlink="http://www.w3.org/1999/xlink">
<g id="graph0" class="graph" transform="scale(1 1) rotate(0) translate(4 675.42)">
<polygon fill="white" stroke="none" points="-4,4 -4,-675.42 1852.62,-675.42 1852.62,4 -4,4"/>
<text text-anchor="middle" x="924.31" y="-606.62" font-family="Times New Roman,serif" font-size="64.00">Isolation Tree &#45; Leafs count 16, Height Reached 5</text>
<!-- node_2658625309392 -->
<g id="node1" class="node">
<title>node_2658625309392</title>
<ellipse fill="none" stroke="black" cx="889.88" cy="-562.74" rx="101.47" ry="27.93"/>
<text text-anchor="middle" x="889.88" y="-565.19" font-family="Times New Roman,serif" font-size="14.00">inNode# 14, Feature: 0</text>
<text text-anchor="middle" x="889.88" y="-549.44" font-family="Times New Roman,serif" font-size="14.00">Value: &#45;23.21</text>
</g>
<!-- node_2658625209936 -->
<g id="node2" class="node">
<title>node_2658625209936</title>
<ellipse fill="none" stroke="black" cx="733.88" cy="-470.88" rx="96.7" ry="27.93"/>
<text text-anchor="middle" x="733.88" y="-473.33" font-family="Times New Roman,serif" font-size="14.00">inNode# 3, Feature: 1</text>
<text text-anchor="middle" x="733.88" y="-457.58" font-family="Times New Roman,serif" font-size="14.00">Value: 7.95</text>
</g>
<!-- node_2658625309392&#45;&gt;node_2658625209936 -->
<g id="edge1" class="edge">
<title>node_2658625309392&#45;&gt;node_2658625209936</title>
<path fill="none" stroke="black" d="M847.25,-537.18C828.42,-526.34 806.1,-513.48 786.26,-502.05"/>
<polygon fill="black" stroke="black" points="788.17,-499.12 777.76,-497.16 784.68,-505.18 788.17,-499.12"/>
</g>
<!-- node_2658625307856 -->
<g id="node11" class="node">
<title>node_2658625307856</title>
<ellipse fill="none" stroke="black" cx="1087.88" cy="-470.88" rx="101.47" ry="27.93"/>
<text text-anchor="middle" x="1087.88" y="-473.33" font-family="Times New Roman,serif" font-size="14.00">inNode# 13, Feature: 0</text>
<text text-anchor="middle" x="1087.88" y="-457.58" font-family="Times New Roman,serif" font-size="14.00">Value: 41.75</text>
</g>
<!-- node_2658625309392&#45;&gt;node_2658625307856 -->
<g id="edge10" class="edge">
<title>node_2658625309392&#45;&gt;node_2658625307856</title>
<path fill="none" stroke="black" d="M941.64,-538.25C967.55,-526.49 999.09,-512.17 1026.24,-499.85"/>
<polygon fill="black" stroke="black" points="1027.38,-503.18 1035.04,-495.86 1024.48,-496.8 1027.38,-503.18"/>
</g>
<!-- node_2658625157648 -->
<g id="node3" class="node">
<title>node_2658625157648</title>
<ellipse fill="none" stroke="black" cx="496.88" cy="-379.02" rx="96.7" ry="27.93"/>
<text text-anchor="middle" x="496.88" y="-381.47" font-family="Times New Roman,serif" font-size="14.00">inNode# 2, Feature: 0</text>
<text text-anchor="middle" x="496.88" y="-365.72" font-family="Times New Roman,serif" font-size="14.00">Value: &#45;48.59</text>
</g>
<!-- node_2658625209936&#45;&gt;node_2658625157648 -->
<g id="edge2" class="edge">
<title>node_2658625209936&#45;&gt;node_2658625157648</title>
<path fill="none" stroke="black" d="M676.2,-448.01C642.68,-435.3 600.24,-419.21 565.06,-405.87"/>
<polygon fill="black" stroke="black" points="566.4,-402.63 555.81,-402.36 563.92,-409.18 566.4,-402.63"/>
</g>
<!-- node_2658625208400 -->
<g id="node10" class="node">
<title>node_2658625208400</title>
<polygon fill="none" stroke="black" points="808.25,-398.77 659.5,-398.77 659.5,-359.27 808.25,-359.27 808.25,-398.77"/>
<text text-anchor="middle" x="733.88" y="-381.47" font-family="Times New Roman,serif" font-size="14.00">ExNode# 4, h: 2, s: 1</text>
<text text-anchor="middle" x="733.88" y="-365.72" font-family="Times New Roman,serif" font-size="14.00">Feature: 1 &gt; Value: 7.95</text>
</g>
<!-- node_2658625209936&#45;&gt;node_2658625208400 -->
<g id="edge9" class="edge">
<title>node_2658625209936&#45;&gt;node_2658625208400</title>
<path fill="none" stroke="black" d="M733.88,-442.92C733.88,-432.7 733.88,-421 733.88,-410.48"/>
<polygon fill="black" stroke="black" points="737.38,-410.76 733.88,-400.76 730.38,-410.76 737.38,-410.76"/>
</g>
<!-- node_2658625151504 -->
<g id="node4" class="node">
<title>node_2658625151504</title>
<ellipse fill="none" stroke="black" cx="261.88" cy="-287.15" rx="96.7" ry="27.93"/>
<text text-anchor="middle" x="261.88" y="-289.6" font-family="Times New Roman,serif" font-size="14.00">inNode# 0, Feature: 0</text>
<text text-anchor="middle" x="261.88" y="-273.85" font-family="Times New Roman,serif" font-size="14.00">Value: &#45;65.29</text>
</g>
<!-- node_2658625157648&#45;&gt;node_2658625151504 -->
<g id="edge3" class="edge">
<title>node_2658625157648&#45;&gt;node_2658625151504</title>
<path fill="none" stroke="black" d="M439.69,-356.15C406.44,-343.44 364.36,-327.34 329.49,-314.01"/>
<polygon fill="black" stroke="black" points="330.91,-310.81 320.32,-310.5 328.41,-317.34 330.91,-310.81"/>
</g>
<!-- node_2658625156112 -->
<g id="node7" class="node">
<title>node_2658625156112</title>
<ellipse fill="none" stroke="black" cx="496.88" cy="-287.15" rx="96.7" ry="27.93"/>
<text text-anchor="middle" x="496.88" y="-289.6" font-family="Times New Roman,serif" font-size="14.00">inNode# 1, Feature: 1</text>
<text text-anchor="middle" x="496.88" y="-273.85" font-family="Times New Roman,serif" font-size="14.00">Value: &#45;48.39</text>
</g>
<!-- node_2658625157648&#45;&gt;node_2658625156112 -->
<g id="edge6" class="edge">
<title>node_2658625157648&#45;&gt;node_2658625156112</title>
<path fill="none" stroke="black" d="M496.88,-351.05C496.88,-343.39 496.88,-334.9 496.88,-326.69"/>
<polygon fill="black" stroke="black" points="500.38,-326.92 496.88,-316.92 493.38,-326.92 500.38,-326.92"/>
</g>
<!-- node_2658625148432 -->
<g id="node5" class="node">
<title>node_2658625148432</title>
<polygon fill="none" stroke="black" points="163.75,-215.04 0,-215.04 0,-175.54 163.75,-175.54 163.75,-215.04"/>
<text text-anchor="middle" x="81.88" y="-197.74" font-family="Times New Roman,serif" font-size="14.00">ExNode# 0, h: 4, s: 1</text>
<text text-anchor="middle" x="81.88" y="-181.99" font-family="Times New Roman,serif" font-size="14.00"> Feature: 0 &lt; Value: &#45;65.29</text>
</g>
<!-- node_2658625151504&#45;&gt;node_2658625148432 -->
<g id="edge4" class="edge">
<title>node_2658625151504&#45;&gt;node_2658625148432</title>
<path fill="none" stroke="black" d="M214.58,-262.54C188.65,-249.6 156.56,-233.58 130.43,-220.53"/>
<polygon fill="black" stroke="black" points="132.24,-217.52 121.73,-216.19 129.11,-223.79 132.24,-217.52"/>
</g>
<!-- node_2658625149968 -->
<g id="node6" class="node">
<title>node_2658625149968</title>
<polygon fill="none" stroke="black" points="341.88,-215.04 181.88,-215.04 181.88,-175.54 341.88,-175.54 341.88,-215.04"/>
<text text-anchor="middle" x="261.88" y="-197.74" font-family="Times New Roman,serif" font-size="14.00">ExNode# 1, h: 4, s: 1</text>
<text text-anchor="middle" x="261.88" y="-181.99" font-family="Times New Roman,serif" font-size="14.00">Feature: 0 &gt; Value: &#45;65.29</text>
</g>
<!-- node_2658625151504&#45;&gt;node_2658625149968 -->
<g id="edge5" class="edge">
<title>node_2658625151504&#45;&gt;node_2658625149968</title>
<path fill="none" stroke="black" d="M261.88,-259.19C261.88,-248.98 261.88,-237.27 261.88,-226.76"/>
<polygon fill="black" stroke="black" points="265.38,-227.04 261.88,-217.04 258.38,-227.04 265.38,-227.04"/>
</g>
<!-- node_2658625153040 -->
<g id="node8" class="node">
<title>node_2658625153040</title>
<polygon fill="none" stroke="black" points="523.75,-215.04 360,-215.04 360,-175.54 523.75,-175.54 523.75,-215.04"/>
<text text-anchor="middle" x="441.88" y="-197.74" font-family="Times New Roman,serif" font-size="14.00">ExNode# 2, h: 4, s: 1</text>
<text text-anchor="middle" x="441.88" y="-181.99" font-family="Times New Roman,serif" font-size="14.00"> Feature: 1 &lt; Value: &#45;48.39</text>
</g>
<!-- node_2658625156112&#45;&gt;node_2658625153040 -->
<g id="edge7" class="edge">
<title>node_2658625156112&#45;&gt;node_2658625153040</title>
<path fill="none" stroke="black" d="M480.37,-259.19C473.78,-248.43 466.19,-236.01 459.49,-225.07"/>
<polygon fill="black" stroke="black" points="462.64,-223.52 454.44,-216.82 456.67,-227.18 462.64,-223.52"/>
</g>
<!-- node_2658625154576 -->
<g id="node9" class="node">
<title>node_2658625154576</title>
<polygon fill="none" stroke="black" points="701.88,-215.04 541.88,-215.04 541.88,-175.54 701.88,-175.54 701.88,-215.04"/>
<text text-anchor="middle" x="621.88" y="-197.74" font-family="Times New Roman,serif" font-size="14.00">ExNode# 3, h: 4, s: 1</text>
<text text-anchor="middle" x="621.88" y="-181.99" font-family="Times New Roman,serif" font-size="14.00">Feature: 1 &gt; Value: &#45;48.39</text>
</g>
<!-- node_2658625156112&#45;&gt;node_2658625154576 -->
<g id="edge8" class="edge">
<title>node_2658625156112&#45;&gt;node_2658625154576</title>
<path fill="none" stroke="black" d="M532.03,-260.88C548.97,-248.71 569.24,-234.13 586.24,-221.91"/>
<polygon fill="black" stroke="black" points="588,-224.95 594.08,-216.28 583.92,-219.27 588,-224.95"/>
</g>
<!-- node_2658625265808 -->
<g id="node12" class="node">
<title>node_2658625265808</title>
<ellipse fill="none" stroke="black" cx="1087.88" cy="-379.02" rx="101.47" ry="27.93"/>
<text text-anchor="middle" x="1087.88" y="-381.47" font-family="Times New Roman,serif" font-size="14.00">inNode# 10, Feature: 1</text>
<text text-anchor="middle" x="1087.88" y="-365.72" font-family="Times New Roman,serif" font-size="14.00">Value: 6.98</text>
</g>
<!-- node_2658625307856&#45;&gt;node_2658625265808 -->
<g id="edge11" class="edge">
<title>node_2658625307856&#45;&gt;node_2658625265808</title>
<path fill="none" stroke="black" d="M1087.88,-442.92C1087.88,-435.25 1087.88,-426.76 1087.88,-418.56"/>
<polygon fill="black" stroke="black" points="1091.38,-418.78 1087.88,-408.78 1084.38,-418.78 1091.38,-418.78"/>
</g>
<!-- node_2658625273488 -->
<g id="node27" class="node">
<title>node_2658625273488</title>
<ellipse fill="none" stroke="black" cx="1573.88" cy="-379.02" rx="101.47" ry="27.93"/>
<text text-anchor="middle" x="1573.88" y="-381.47" font-family="Times New Roman,serif" font-size="14.00">inNode# 12, Feature: 0</text>
<text text-anchor="middle" x="1573.88" y="-365.72" font-family="Times New Roman,serif" font-size="14.00">Value: 71.44</text>
</g>
<!-- node_2658625307856&#45;&gt;node_2658625273488 -->
<g id="edge26" class="edge">
<title>node_2658625307856&#45;&gt;node_2658625273488</title>
<path fill="none" stroke="black" d="M1171.15,-454.48C1256.86,-438.63 1390.17,-413.98 1479.68,-397.43"/>
<polygon fill="black" stroke="black" points="1480.23,-400.89 1489.43,-395.63 1478.96,-394.01 1480.23,-400.89"/>
</g>
<!-- node_2658625220688 -->
<g id="node13" class="node">
<title>node_2658625220688</title>
<ellipse fill="none" stroke="black" cx="982.88" cy="-287.15" rx="96.7" ry="27.93"/>
<text text-anchor="middle" x="982.88" y="-289.6" font-family="Times New Roman,serif" font-size="14.00">inNode# 6, Feature: 0</text>
<text text-anchor="middle" x="982.88" y="-273.85" font-family="Times New Roman,serif" font-size="14.00">Value: &#45;9.38</text>
</g>
<!-- node_2658625265808&#45;&gt;node_2658625220688 -->
<g id="edge12" class="edge">
<title>node_2658625265808&#45;&gt;node_2658625220688</title>
<path fill="none" stroke="black" d="M1057.5,-352.02C1046.29,-342.43 1033.44,-331.43 1021.59,-321.29"/>
<polygon fill="black" stroke="black" points="1024.2,-318.91 1014.33,-315.07 1019.65,-324.23 1024.2,-318.91"/>
</g>
<!-- node_2658625264272 -->
<g id="node20" class="node">
<title>node_2658625264272</title>
<ellipse fill="none" stroke="black" cx="1193.88" cy="-287.15" rx="96.7" ry="27.93"/>
<text text-anchor="middle" x="1193.88" y="-289.6" font-family="Times New Roman,serif" font-size="14.00">inNode# 9, Feature: 1</text>
<text text-anchor="middle" x="1193.88" y="-273.85" font-family="Times New Roman,serif" font-size="14.00">Value: 22.95</text>
</g>
<!-- node_2658625265808&#45;&gt;node_2658625264272 -->
<g id="edge19" class="edge">
<title>node_2658625265808&#45;&gt;node_2658625264272</title>
<path fill="none" stroke="black" d="M1118.53,-352.02C1129.85,-342.43 1142.83,-331.43 1154.79,-321.29"/>
<polygon fill="black" stroke="black" points="1156.77,-324.2 1162.13,-315.07 1152.24,-318.86 1156.77,-324.2"/>
</g>
<!-- node_2658625211472 -->
<g id="node14" class="node">
<title>node_2658625211472</title>
<polygon fill="none" stroke="black" points="877.38,-215.04 720.38,-215.04 720.38,-175.54 877.38,-175.54 877.38,-215.04"/>
<text text-anchor="middle" x="798.88" y="-197.74" font-family="Times New Roman,serif" font-size="14.00">ExNode# 5, h: 4, s: 1</text>
<text text-anchor="middle" x="798.88" y="-181.99" font-family="Times New Roman,serif" font-size="14.00"> Feature: 0 &lt; Value: &#45;9.38</text>
</g>
<!-- node_2658625220688&#45;&gt;node_2658625211472 -->
<g id="edge13" class="edge">
<title>node_2658625220688&#45;&gt;node_2658625211472</title>
<path fill="none" stroke="black" d="M934.53,-262.54C908.02,-249.6 875.22,-233.58 848.51,-220.53"/>
<polygon fill="black" stroke="black" points="850.11,-217.42 839.59,-216.18 847.04,-223.71 850.11,-217.42"/>
</g>
<!-- node_2658625219152 -->
<g id="node15" class="node">
<title>node_2658625219152</title>
<ellipse fill="none" stroke="black" cx="991.88" cy="-195.29" rx="96.7" ry="27.93"/>
<text text-anchor="middle" x="991.88" y="-197.74" font-family="Times New Roman,serif" font-size="14.00">inNode# 5, Feature: 1</text>
<text text-anchor="middle" x="991.88" y="-181.99" font-family="Times New Roman,serif" font-size="14.00">Value: &#45;42.73</text>
</g>
<!-- node_2658625220688&#45;&gt;node_2658625219152 -->
<g id="edge14" class="edge">
<title>node_2658625220688&#45;&gt;node_2658625219152</title>
<path fill="none" stroke="black" d="M985.58,-259.19C986.34,-251.53 987.19,-243.04 988.01,-234.83"/>
<polygon fill="black" stroke="black" points="991.48,-235.35 988.99,-225.05 984.52,-234.65 991.48,-235.35"/>
</g>
<!-- node_2658625213008 -->
<g id="node16" class="node">
<title>node_2658625213008</title>
<polygon fill="none" stroke="black" points="876.75,-123.18 713,-123.18 713,-83.68 876.75,-83.68 876.75,-123.18"/>
<text text-anchor="middle" x="794.88" y="-105.88" font-family="Times New Roman,serif" font-size="14.00">ExNode# 6, h: 5, s: 1</text>
<text text-anchor="middle" x="794.88" y="-90.13" font-family="Times New Roman,serif" font-size="14.00"> Feature: 1 &lt; Value: &#45;42.73</text>
</g>
<!-- node_2658625219152&#45;&gt;node_2658625213008 -->
<g id="edge15" class="edge">
<title>node_2658625219152&#45;&gt;node_2658625213008</title>
<path fill="none" stroke="black" d="M941.14,-171.15C912.31,-158 876.26,-141.56 847.17,-128.29"/>
<polygon fill="black" stroke="black" points="848.72,-125.15 838.17,-124.18 845.82,-131.52 848.72,-125.15"/>
</g>
<!-- node_2658625217616 -->
<g id="node17" class="node">
<title>node_2658625217616</title>
<ellipse fill="none" stroke="black" cx="991.88" cy="-103.43" rx="96.7" ry="27.93"/>
<text text-anchor="middle" x="991.88" y="-105.88" font-family="Times New Roman,serif" font-size="14.00">inNode# 4, Feature: 0</text>
<text text-anchor="middle" x="991.88" y="-90.13" font-family="Times New Roman,serif" font-size="14.00">Value: 25.17</text>
</g>
<!-- node_2658625219152&#45;&gt;node_2658625217616 -->
<g id="edge16" class="edge">
<title>node_2658625219152&#45;&gt;node_2658625217616</title>
<path fill="none" stroke="black" d="M991.88,-167.33C991.88,-159.67 991.88,-151.18 991.88,-142.97"/>
<polygon fill="black" stroke="black" points="995.38,-143.2 991.88,-133.2 988.38,-143.2 995.38,-143.2"/>
</g>
<!-- node_2658625214544 -->
<g id="node18" class="node">
<title>node_2658625214544</title>
<polygon fill="none" stroke="black" points="993.5,-39.5 834.25,-39.5 834.25,0 993.5,0 993.5,-39.5"/>
<text text-anchor="middle" x="913.88" y="-22.2" font-family="Times New Roman,serif" font-size="14.00">ExNode# 7, h: 6, s: 1</text>
<text text-anchor="middle" x="913.88" y="-6.45" font-family="Times New Roman,serif" font-size="14.00"> Feature: 0 &lt; Value: 25.17</text>
</g>
<!-- node_2658625217616&#45;&gt;node_2658625214544 -->
<g id="edge17" class="edge">
<title>node_2658625217616&#45;&gt;node_2658625214544</title>
<path fill="none" stroke="black" d="M966.77,-76.14C958.19,-67.16 948.59,-57.1 939.95,-48.05"/>
<polygon fill="black" stroke="black" points="942.5,-45.65 933.06,-40.84 937.43,-50.49 942.5,-45.65"/>
</g>
<!-- node_2658625216080 -->
<g id="node19" class="node">
<title>node_2658625216080</title>
<polygon fill="none" stroke="black" points="1166.62,-39.5 1011.12,-39.5 1011.12,0 1166.62,0 1166.62,-39.5"/>
<text text-anchor="middle" x="1088.88" y="-22.2" font-family="Times New Roman,serif" font-size="14.00">ExNode# 8, h: 6, s: 1</text>
<text text-anchor="middle" x="1088.88" y="-6.45" font-family="Times New Roman,serif" font-size="14.00">Feature: 0 &gt; Value: 25.17</text>
</g>
<!-- node_2658625217616&#45;&gt;node_2658625216080 -->
<g id="edge18" class="edge">
<title>node_2658625217616&#45;&gt;node_2658625216080</title>
<path fill="none" stroke="black" d="M1022.57,-76.59C1033.69,-67.22 1046.27,-56.63 1057.45,-47.21"/>
<polygon fill="black" stroke="black" points="1059.52,-50.05 1064.91,-40.93 1055.01,-44.69 1059.52,-50.05"/>
</g>
<!-- node_2658625222224 -->
<g id="node21" class="node">
<title>node_2658625222224</title>
<polygon fill="none" stroke="black" points="1265.5,-215.04 1106.25,-215.04 1106.25,-175.54 1265.5,-175.54 1265.5,-215.04"/>
<text text-anchor="middle" x="1185.88" y="-197.74" font-family="Times New Roman,serif" font-size="14.00">ExNode# 9, h: 4, s: 1</text>
<text text-anchor="middle" x="1185.88" y="-181.99" font-family="Times New Roman,serif" font-size="14.00"> Feature: 1 &lt; Value: 22.95</text>
</g>
<!-- node_2658625264272&#45;&gt;node_2658625222224 -->
<g id="edge20" class="edge">
<title>node_2658625264272&#45;&gt;node_2658625222224</title>
<path fill="none" stroke="black" d="M1191.47,-259.19C1190.57,-248.98 1189.52,-237.27 1188.59,-226.76"/>
<polygon fill="black" stroke="black" points="1192.09,-226.69 1187.72,-217.04 1185.12,-227.31 1192.09,-226.69"/>
</g>
<!-- node_2658625262736 -->
<g id="node22" class="node">
<title>node_2658625262736</title>
<ellipse fill="none" stroke="black" cx="1379.88" cy="-195.29" rx="96.7" ry="27.93"/>
<text text-anchor="middle" x="1379.88" y="-197.74" font-family="Times New Roman,serif" font-size="14.00">inNode# 8, Feature: 1</text>
<text text-anchor="middle" x="1379.88" y="-181.99" font-family="Times New Roman,serif" font-size="14.00">Value: 42.24</text>
</g>
<!-- node_2658625264272&#45;&gt;node_2658625262736 -->
<g id="edge21" class="edge">
<title>node_2658625264272&#45;&gt;node_2658625262736</title>
<path fill="none" stroke="black" d="M1242.26,-262.78C1266.29,-251.17 1295.53,-237.04 1320.86,-224.8"/>
<polygon fill="black" stroke="black" points="1322.24,-228.02 1329.72,-220.52 1319.2,-221.72 1322.24,-228.02"/>
</g>
<!-- node_2658625223760 -->
<g id="node23" class="node">
<title>node_2658625223760</title>
<polygon fill="none" stroke="black" points="1304.5,-123.18 1145.25,-123.18 1145.25,-83.68 1304.5,-83.68 1304.5,-123.18"/>
<text text-anchor="middle" x="1224.88" y="-105.88" font-family="Times New Roman,serif" font-size="14.00">ExNode# 10, h: 5, s: 1</text>
<text text-anchor="middle" x="1224.88" y="-90.13" font-family="Times New Roman,serif" font-size="14.00"> Feature: 1 &lt; Value: 42.24</text>
</g>
<!-- node_2658625262736&#45;&gt;node_2658625223760 -->
<g id="edge22" class="edge">
<title>node_2658625262736&#45;&gt;node_2658625223760</title>
<path fill="none" stroke="black" d="M1337.52,-169.74C1315.85,-157.18 1289.54,-141.92 1267.79,-129.31"/>
<polygon fill="black" stroke="black" points="1269.56,-126.29 1259.15,-124.3 1266.05,-132.35 1269.56,-126.29"/>
</g>
<!-- node_2658625261200 -->
<g id="node24" class="node">
<title>node_2658625261200</title>
<ellipse fill="none" stroke="black" cx="1418.88" cy="-103.43" rx="96.7" ry="27.93"/>
<text text-anchor="middle" x="1418.88" y="-105.88" font-family="Times New Roman,serif" font-size="14.00">inNode# 7, Feature: 1</text>
<text text-anchor="middle" x="1418.88" y="-90.13" font-family="Times New Roman,serif" font-size="14.00">Value: 42.90</text>
</g>
<!-- node_2658625262736&#45;&gt;node_2658625261200 -->
<g id="edge23" class="edge">
<title>node_2658625262736&#45;&gt;node_2658625261200</title>
<path fill="none" stroke="black" d="M1391.58,-167.33C1395.05,-159.33 1398.91,-150.43 1402.62,-141.89"/>
<polygon fill="black" stroke="black" points="1405.81,-143.33 1406.58,-132.76 1399.39,-140.54 1405.81,-143.33"/>
</g>
<!-- node_2658625258128 -->
<g id="node25" class="node">
<title>node_2658625258128</title>
<polygon fill="none" stroke="black" points="1362.5,-39.5 1203.25,-39.5 1203.25,0 1362.5,0 1362.5,-39.5"/>
<text text-anchor="middle" x="1282.88" y="-22.2" font-family="Times New Roman,serif" font-size="14.00">ExNode# 11, h: 6, s: 1</text>
<text text-anchor="middle" x="1282.88" y="-6.45" font-family="Times New Roman,serif" font-size="14.00"> Feature: 1 &lt; Value: 42.90</text>
</g>
<!-- node_2658625261200&#45;&gt;node_2658625258128 -->
<g id="edge24" class="edge">
<title>node_2658625261200&#45;&gt;node_2658625258128</title>
<path fill="none" stroke="black" d="M1377.7,-77.7C1360.84,-67.58 1341.36,-55.87 1324.46,-45.72"/>
<polygon fill="black" stroke="black" points="1326.51,-42.88 1316.14,-40.73 1322.91,-48.88 1326.51,-42.88"/>
</g>
<!-- node_2658625259664 -->
<g id="node26" class="node">
<title>node_2658625259664</title>
<polygon fill="none" stroke="black" points="1535.62,-39.5 1380.12,-39.5 1380.12,0 1535.62,0 1535.62,-39.5"/>
<text text-anchor="middle" x="1457.88" y="-22.2" font-family="Times New Roman,serif" font-size="14.00">ExNode# 12, h: 6, s: 1</text>
<text text-anchor="middle" x="1457.88" y="-6.45" font-family="Times New Roman,serif" font-size="14.00">Feature: 1 &gt; Value: 42.90</text>
</g>
<!-- node_2658625261200&#45;&gt;node_2658625259664 -->
<g id="edge25" class="edge">
<title>node_2658625261200&#45;&gt;node_2658625259664</title>
<path fill="none" stroke="black" d="M1431.65,-75.69C1435.58,-67.44 1439.93,-58.32 1443.94,-49.93"/>
<polygon fill="black" stroke="black" points="1446.98,-51.69 1448.13,-41.16 1440.66,-48.67 1446.98,-51.69"/>
</g>
<!-- node_2658625270416 -->
<g id="node28" class="node">
<title>node_2658625270416</title>
<ellipse fill="none" stroke="black" cx="1573.88" cy="-287.15" rx="101.47" ry="27.93"/>
<text text-anchor="middle" x="1573.88" y="-289.6" font-family="Times New Roman,serif" font-size="14.00">inNode# 11, Feature: 1</text>
<text text-anchor="middle" x="1573.88" y="-273.85" font-family="Times New Roman,serif" font-size="14.00">Value: 15.38</text>
</g>
<!-- node_2658625273488&#45;&gt;node_2658625270416 -->
<g id="edge27" class="edge">
<title>node_2658625273488&#45;&gt;node_2658625270416</title>
<path fill="none" stroke="black" d="M1573.88,-351.05C1573.88,-343.39 1573.88,-334.9 1573.88,-326.69"/>
<polygon fill="black" stroke="black" points="1577.38,-326.92 1573.88,-316.92 1570.38,-326.92 1577.38,-326.92"/>
</g>
<!-- node_2658625271952 -->
<g id="node31" class="node">
<title>node_2658625271952</title>
<polygon fill="none" stroke="black" points="1848.62,-306.9 1693.12,-306.9 1693.12,-267.4 1848.62,-267.4 1848.62,-306.9"/>
<text text-anchor="middle" x="1770.88" y="-289.6" font-family="Times New Roman,serif" font-size="14.00">ExNode# 15, h: 3, s: 1</text>
<text text-anchor="middle" x="1770.88" y="-273.85" font-family="Times New Roman,serif" font-size="14.00">Feature: 0 &gt; Value: 71.44</text>
</g>
<!-- node_2658625273488&#45;&gt;node_2658625271952 -->
<g id="edge30" class="edge">
<title>node_2658625273488&#45;&gt;node_2658625271952</title>
<path fill="none" stroke="black" d="M1625.38,-354.52C1654.11,-341.42 1689.81,-325.13 1718.66,-311.97"/>
<polygon fill="black" stroke="black" points="1719.93,-315.24 1727.58,-307.9 1717.03,-308.87 1719.93,-315.24"/>
</g>
<!-- node_2658625267344 -->
<g id="node29" class="node">
<title>node_2658625267344</title>
<polygon fill="none" stroke="black" points="1653.5,-215.04 1494.25,-215.04 1494.25,-175.54 1653.5,-175.54 1653.5,-215.04"/>
<text text-anchor="middle" x="1573.88" y="-197.74" font-family="Times New Roman,serif" font-size="14.00">ExNode# 13, h: 4, s: 1</text>
<text text-anchor="middle" x="1573.88" y="-181.99" font-family="Times New Roman,serif" font-size="14.00"> Feature: 1 &lt; Value: 15.38</text>
</g>
<!-- node_2658625270416&#45;&gt;node_2658625267344 -->
<g id="edge28" class="edge">
<title>node_2658625270416&#45;&gt;node_2658625267344</title>
<path fill="none" stroke="black" d="M1573.88,-259.19C1573.88,-248.98 1573.88,-237.27 1573.88,-226.76"/>
<polygon fill="black" stroke="black" points="1577.38,-227.04 1573.88,-217.04 1570.38,-227.04 1577.38,-227.04"/>
</g>
<!-- node_2658625268880 -->
<g id="node30" class="node">
<title>node_2658625268880</title>
<polygon fill="none" stroke="black" points="1826.62,-215.04 1671.12,-215.04 1671.12,-175.54 1826.62,-175.54 1826.62,-215.04"/>
<text text-anchor="middle" x="1748.88" y="-197.74" font-family="Times New Roman,serif" font-size="14.00">ExNode# 14, h: 4, s: 1</text>
<text text-anchor="middle" x="1748.88" y="-181.99" font-family="Times New Roman,serif" font-size="14.00">Feature: 1 &gt; Value: 15.38</text>
</g>
<!-- node_2658625270416&#45;&gt;node_2658625268880 -->
<g id="edge29" class="edge">
<title>node_2658625270416&#45;&gt;node_2658625268880</title>
<path fill="none" stroke="black" d="M1620.77,-262.07C1645.78,-249.23 1676.47,-233.47 1701.54,-220.6"/>
<polygon fill="black" stroke="black" points="1702.91,-223.83 1710.2,-216.15 1699.71,-217.6 1702.91,-223.83"/>
</g>
</g>
</svg>
