<?xml version="1.0" encoding="UTF-8" standalone="no"?>
<!DOCTYPE svg PUBLIC "-//W3C//DTD SVG 1.1//EN"
 "http://www.w3.org/Graphics/SVG/1.1/DTD/svg11.dtd">
<!-- Generated by graphviz version 10.0.1 (20240210.2158)
 -->
<!-- Pages: 1 -->
<svg width="1305pt" height="955pt"
 viewBox="0.00 0.00 1305.00 955.00" xmlns="http://www.w3.org/2000/svg" xmlns:xlink="http://www.w3.org/1999/xlink">
<g id="graph0" class="graph" transform="scale(1 1) rotate(0) translate(4 951)">
<polygon fill="white" stroke="none" points="-4,4 -4,-951 1301,-951 1301,4 -4,4"/>
<text text-anchor="middle" x="648.5" y="-882.2" font-family="Times New Roman,serif" font-size="64.00">Isolation Tree &#45; Leafs count 16, Height Reached 8</text>
<!-- node_2658814372336 -->
<g id="node1" class="node">
<title>node_2658814372336</title>
<ellipse fill="none" stroke="black" cx="498.31" cy="-838.32" rx="101.47" ry="27.93"/>
<text text-anchor="middle" x="498.31" y="-840.77" font-family="Times New Roman,serif" font-size="14.00">inNode# 14, Feature: 0</text>
<text text-anchor="middle" x="498.31" y="-825.02" font-family="Times New Roman,serif" font-size="14.00">Value: &#45;563.85</text>
</g>
<!-- node_2658814363072 -->
<g id="node2" class="node">
<title>node_2658814363072</title>
<ellipse fill="none" stroke="black" cx="390.31" cy="-746.46" rx="96.7" ry="27.93"/>
<text text-anchor="middle" x="390.31" y="-748.91" font-family="Times New Roman,serif" font-size="14.00">inNode# 1, Feature: 1</text>
<text text-anchor="middle" x="390.31" y="-733.16" font-family="Times New Roman,serif" font-size="14.00">Value: 392.00</text>
</g>
<!-- node_2658814372336&#45;&gt;node_2658814363072 -->
<g id="edge1" class="edge">
<title>node_2658814372336&#45;&gt;node_2658814363072</title>
<path fill="none" stroke="black" d="M467.07,-811.33C455.44,-801.65 442.09,-790.54 429.81,-780.33"/>
<polygon fill="black" stroke="black" points="432.2,-777.76 422.27,-774.05 427.72,-783.14 432.2,-777.76"/>
</g>
<!-- node_2658814370848 -->
<g id="node7" class="node">
<title>node_2658814370848</title>
<ellipse fill="none" stroke="black" cx="606.31" cy="-746.46" rx="101.47" ry="27.93"/>
<text text-anchor="middle" x="606.31" y="-748.91" font-family="Times New Roman,serif" font-size="14.00">inNode# 13, Feature: 1</text>
<text text-anchor="middle" x="606.31" y="-733.16" font-family="Times New Roman,serif" font-size="14.00">Value: &#45;705.37</text>
</g>
<!-- node_2658814372336&#45;&gt;node_2658814370848 -->
<g id="edge6" class="edge">
<title>node_2658814372336&#45;&gt;node_2658814370848</title>
<path fill="none" stroke="black" d="M529.55,-811.33C541.08,-801.74 554.31,-790.73 566.49,-780.59"/>
<polygon fill="black" stroke="black" points="568.53,-783.45 573.98,-774.36 564.06,-778.07 568.53,-783.45"/>
</g>
<!-- node_2658689706912 -->
<g id="node3" class="node">
<title>node_2658689706912</title>
<polygon fill="none" stroke="black" points="279.31,-674.35 113.31,-674.35 113.31,-634.85 279.31,-634.85 279.31,-674.35"/>
<text text-anchor="middle" x="196.31" y="-657.05" font-family="Times New Roman,serif" font-size="14.00">ExNode# 0, h: 2, s: 1</text>
<text text-anchor="middle" x="196.31" y="-641.3" font-family="Times New Roman,serif" font-size="14.00"> Feature: 1 &lt; Value: 392.00</text>
</g>
<!-- node_2658814363072&#45;&gt;node_2658689706912 -->
<g id="edge2" class="edge">
<title>node_2658814363072&#45;&gt;node_2658689706912</title>
<path fill="none" stroke="black" d="M340.1,-722.2C311.8,-709.1 276.52,-692.75 247.99,-679.54"/>
<polygon fill="black" stroke="black" points="249.73,-676.48 239.18,-675.46 246.78,-682.83 249.73,-676.48"/>
</g>
<!-- node_2658814362928 -->
<g id="node4" class="node">
<title>node_2658814362928</title>
<ellipse fill="none" stroke="black" cx="394.31" cy="-654.6" rx="96.7" ry="27.93"/>
<text text-anchor="middle" x="394.31" y="-657.05" font-family="Times New Roman,serif" font-size="14.00">inNode# 0, Feature: 0</text>
<text text-anchor="middle" x="394.31" y="-641.3" font-family="Times New Roman,serif" font-size="14.00">Value: &#45;802.82</text>
</g>
<!-- node_2658814363072&#45;&gt;node_2658814362928 -->
<g id="edge3" class="edge">
<title>node_2658814363072&#45;&gt;node_2658814362928</title>
<path fill="none" stroke="black" d="M391.51,-718.5C391.85,-710.84 392.23,-702.34 392.6,-694.14"/>
<polygon fill="black" stroke="black" points="396.08,-694.51 393.03,-684.36 389.09,-694.2 396.08,-694.51"/>
</g>
<!-- node_2658689704608 -->
<g id="node5" class="node">
<title>node_2658689704608</title>
<polygon fill="none" stroke="black" points="386.56,-582.49 216.06,-582.49 216.06,-542.99 386.56,-542.99 386.56,-582.49"/>
<text text-anchor="middle" x="301.31" y="-565.19" font-family="Times New Roman,serif" font-size="14.00">ExNode# 1, h: 3, s: 1</text>
<text text-anchor="middle" x="301.31" y="-549.44" font-family="Times New Roman,serif" font-size="14.00"> Feature: 0 &lt; Value: &#45;802.82</text>
</g>
<!-- node_2658814362928&#45;&gt;node_2658689704608 -->
<g id="edge4" class="edge">
<title>node_2658814362928&#45;&gt;node_2658689704608</title>
<path fill="none" stroke="black" d="M367.41,-627.61C355.38,-615.98 341.21,-602.29 329.08,-590.57"/>
<polygon fill="black" stroke="black" points="331.77,-588.3 322.15,-583.87 326.91,-593.34 331.77,-588.3"/>
</g>
<!-- node_2658689700192 -->
<g id="node6" class="node">
<title>node_2658689700192</title>
<polygon fill="none" stroke="black" points="571.69,-582.49 404.94,-582.49 404.94,-542.99 571.69,-542.99 571.69,-582.49"/>
<text text-anchor="middle" x="488.31" y="-565.19" font-family="Times New Roman,serif" font-size="14.00">ExNode# 2, h: 3, s: 1</text>
<text text-anchor="middle" x="488.31" y="-549.44" font-family="Times New Roman,serif" font-size="14.00">Feature: 0 &gt; Value: &#45;802.82</text>
</g>
<!-- node_2658814362928&#45;&gt;node_2658689700192 -->
<g id="edge5" class="edge">
<title>node_2658814362928&#45;&gt;node_2658689700192</title>
<path fill="none" stroke="black" d="M421.75,-627.37C433.91,-615.75 448.18,-602.1 460.39,-590.43"/>
<polygon fill="black" stroke="black" points="462.55,-593.2 467.36,-583.76 457.72,-588.14 462.55,-593.2"/>
</g>
<!-- node_2658814369072 -->
<g id="node8" class="node">
<title>node_2658814369072</title>
<polygon fill="none" stroke="black" points="687.56,-674.35 517.06,-674.35 517.06,-634.85 687.56,-634.85 687.56,-674.35"/>
<text text-anchor="middle" x="602.31" y="-657.05" font-family="Times New Roman,serif" font-size="14.00">ExNode# 3, h: 2, s: 1</text>
<text text-anchor="middle" x="602.31" y="-641.3" font-family="Times New Roman,serif" font-size="14.00"> Feature: 1 &lt; Value: &#45;705.37</text>
</g>
<!-- node_2658814370848&#45;&gt;node_2658814369072 -->
<g id="edge7" class="edge">
<title>node_2658814370848&#45;&gt;node_2658814369072</title>
<path fill="none" stroke="black" d="M605.11,-718.5C604.66,-708.28 604.14,-696.58 603.67,-686.06"/>
<polygon fill="black" stroke="black" points="607.18,-686.18 603.24,-676.35 600.18,-686.49 607.18,-686.18"/>
</g>
<!-- node_2658814372528 -->
<g id="node9" class="node">
<title>node_2658814372528</title>
<ellipse fill="none" stroke="black" cx="807.31" cy="-654.6" rx="101.47" ry="27.93"/>
<text text-anchor="middle" x="807.31" y="-657.05" font-family="Times New Roman,serif" font-size="14.00">inNode# 12, Feature: 0</text>
<text text-anchor="middle" x="807.31" y="-641.3" font-family="Times New Roman,serif" font-size="14.00">Value: 352.81</text>
</g>
<!-- node_2658814370848&#45;&gt;node_2658814372528 -->
<g id="edge8" class="edge">
<title>node_2658814370848&#45;&gt;node_2658814372528</title>
<path fill="none" stroke="black" d="M658.6,-722.09C685,-710.28 717.23,-695.87 744.92,-683.49"/>
<polygon fill="black" stroke="black" points="746.21,-686.75 753.91,-679.48 743.35,-680.36 746.21,-686.75"/>
</g>
<!-- node_2658814367248 -->
<g id="node10" class="node">
<title>node_2658814367248</title>
<ellipse fill="none" stroke="black" cx="698.31" cy="-562.74" rx="101.47" ry="27.93"/>
<text text-anchor="middle" x="698.31" y="-565.19" font-family="Times New Roman,serif" font-size="14.00">inNode# 10, Feature: 0</text>
<text text-anchor="middle" x="698.31" y="-549.44" font-family="Times New Roman,serif" font-size="14.00">Value: &#45;378.38</text>
</g>
<!-- node_2658814372528&#45;&gt;node_2658814367248 -->
<g id="edge9" class="edge">
<title>node_2658814372528&#45;&gt;node_2658814367248</title>
<path fill="none" stroke="black" d="M775.79,-627.61C764.15,-618.01 750.8,-607.01 738.5,-596.87"/>
<polygon fill="black" stroke="black" points="740.88,-594.29 730.94,-590.63 736.43,-599.7 740.88,-594.29"/>
</g>
<!-- node_2658814370032 -->
<g id="node29" class="node">
<title>node_2658814370032</title>
<ellipse fill="none" stroke="black" cx="919.31" cy="-562.74" rx="101.47" ry="27.93"/>
<text text-anchor="middle" x="919.31" y="-565.19" font-family="Times New Roman,serif" font-size="14.00">inNode# 11, Feature: 1</text>
<text text-anchor="middle" x="919.31" y="-549.44" font-family="Times New Roman,serif" font-size="14.00">Value: &#45;351.69</text>
</g>
<!-- node_2658814372528&#45;&gt;node_2658814370032 -->
<g id="edge28" class="edge">
<title>node_2658814372528&#45;&gt;node_2658814370032</title>
<path fill="none" stroke="black" d="M839.41,-627.85C851.59,-618.07 865.64,-606.8 878.52,-596.47"/>
<polygon fill="black" stroke="black" points="880.42,-599.43 886.03,-590.44 876.04,-593.97 880.42,-599.43"/>
</g>
<!-- node_2658814362352 -->
<g id="node11" class="node">
<title>node_2658814362352</title>
<ellipse fill="none" stroke="black" cx="492.31" cy="-470.88" rx="96.7" ry="27.93"/>
<text text-anchor="middle" x="492.31" y="-473.33" font-family="Times New Roman,serif" font-size="14.00">inNode# 3, Feature: 1</text>
<text text-anchor="middle" x="492.31" y="-457.58" font-family="Times New Roman,serif" font-size="14.00">Value: 321.58</text>
</g>
<!-- node_2658814367248&#45;&gt;node_2658814362352 -->
<g id="edge10" class="edge">
<title>node_2658814367248&#45;&gt;node_2658814362352</title>
<path fill="none" stroke="black" d="M645.26,-538.6C617.76,-526.6 584,-511.87 555.19,-499.31"/>
<polygon fill="black" stroke="black" points="556.78,-496.18 546.21,-495.39 553.98,-502.6 556.78,-496.18"/>
</g>
<!-- node_2658814370272 -->
<g id="node16" class="node">
<title>node_2658814370272</title>
<ellipse fill="none" stroke="black" cx="703.31" cy="-470.88" rx="96.7" ry="27.93"/>
<text text-anchor="middle" x="703.31" y="-473.33" font-family="Times New Roman,serif" font-size="14.00">inNode# 9, Feature: 1</text>
<text text-anchor="middle" x="703.31" y="-457.58" font-family="Times New Roman,serif" font-size="14.00">Value: 34.63</text>
</g>
<!-- node_2658814367248&#45;&gt;node_2658814370272 -->
<g id="edge15" class="edge">
<title>node_2658814367248&#45;&gt;node_2658814370272</title>
<path fill="none" stroke="black" d="M699.81,-534.78C700.24,-527.12 700.71,-518.62 701.17,-510.42"/>
<polygon fill="black" stroke="black" points="704.65,-510.82 701.71,-500.64 697.66,-510.43 704.65,-510.82"/>
</g>
<!-- node_2658814371232 -->
<g id="node12" class="node">
<title>node_2658814371232</title>
<ellipse fill="none" stroke="black" cx="300.31" cy="-379.02" rx="96.7" ry="27.93"/>
<text text-anchor="middle" x="300.31" y="-381.47" font-family="Times New Roman,serif" font-size="14.00">inNode# 2, Feature: 0</text>
<text text-anchor="middle" x="300.31" y="-365.72" font-family="Times New Roman,serif" font-size="14.00">Value: &#45;497.16</text>
</g>
<!-- node_2658814362352&#45;&gt;node_2658814371232 -->
<g id="edge11" class="edge">
<title>node_2658814362352&#45;&gt;node_2658814371232</title>
<path fill="none" stroke="black" d="M442.37,-446.5C417.26,-434.75 386.64,-420.42 360.26,-408.07"/>
<polygon fill="black" stroke="black" points="361.92,-404.98 351.38,-403.92 358.95,-411.32 361.92,-404.98"/>
</g>
<!-- node_2658814366384 -->
<g id="node15" class="node">
<title>node_2658814366384</title>
<polygon fill="none" stroke="black" points="577.44,-398.77 415.19,-398.77 415.19,-359.27 577.44,-359.27 577.44,-398.77"/>
<text text-anchor="middle" x="496.31" y="-381.47" font-family="Times New Roman,serif" font-size="14.00">ExNode# 6, h: 5, s: 1</text>
<text text-anchor="middle" x="496.31" y="-365.72" font-family="Times New Roman,serif" font-size="14.00">Feature: 1 &gt; Value: 321.58</text>
</g>
<!-- node_2658814362352&#45;&gt;node_2658814366384 -->
<g id="edge14" class="edge">
<title>node_2658814362352&#45;&gt;node_2658814366384</title>
<path fill="none" stroke="black" d="M493.51,-442.92C493.97,-432.7 494.49,-421 494.96,-410.48"/>
<polygon fill="black" stroke="black" points="498.44,-410.91 495.39,-400.76 491.45,-410.6 498.44,-410.91"/>
</g>
<!-- node_2658814373344 -->
<g id="node13" class="node">
<title>node_2658814373344</title>
<polygon fill="none" stroke="black" points="292.56,-306.9 122.06,-306.9 122.06,-267.4 292.56,-267.4 292.56,-306.9"/>
<text text-anchor="middle" x="207.31" y="-289.6" font-family="Times New Roman,serif" font-size="14.00">ExNode# 4, h: 6, s: 1</text>
<text text-anchor="middle" x="207.31" y="-273.85" font-family="Times New Roman,serif" font-size="14.00"> Feature: 0 &lt; Value: &#45;497.16</text>
</g>
<!-- node_2658814371232&#45;&gt;node_2658814373344 -->
<g id="edge12" class="edge">
<title>node_2658814371232&#45;&gt;node_2658814373344</title>
<path fill="none" stroke="black" d="M273.41,-352.02C261.38,-340.4 247.21,-326.71 235.08,-314.98"/>
<polygon fill="black" stroke="black" points="237.77,-312.72 228.15,-308.29 232.91,-317.75 237.77,-312.72"/>
</g>
<!-- node_2658814364080 -->
<g id="node14" class="node">
<title>node_2658814364080</title>
<polygon fill="none" stroke="black" points="477.69,-306.9 310.94,-306.9 310.94,-267.4 477.69,-267.4 477.69,-306.9"/>
<text text-anchor="middle" x="394.31" y="-289.6" font-family="Times New Roman,serif" font-size="14.00">ExNode# 5, h: 6, s: 1</text>
<text text-anchor="middle" x="394.31" y="-273.85" font-family="Times New Roman,serif" font-size="14.00">Feature: 0 &gt; Value: &#45;497.16</text>
</g>
<!-- node_2658814371232&#45;&gt;node_2658814364080 -->
<g id="edge13" class="edge">
<title>node_2658814371232&#45;&gt;node_2658814364080</title>
<path fill="none" stroke="black" d="M327.75,-351.78C339.91,-340.16 354.18,-326.52 366.39,-314.85"/>
<polygon fill="black" stroke="black" points="368.55,-317.62 373.36,-308.18 363.72,-312.56 368.55,-317.62"/>
</g>
<!-- node_2658814372672 -->
<g id="node17" class="node">
<title>node_2658814372672</title>
<ellipse fill="none" stroke="black" cx="699.31" cy="-379.02" rx="96.7" ry="27.93"/>
<text text-anchor="middle" x="699.31" y="-381.47" font-family="Times New Roman,serif" font-size="14.00">inNode# 8, Feature: 0</text>
<text text-anchor="middle" x="699.31" y="-365.72" font-family="Times New Roman,serif" font-size="14.00">Value: 199.80</text>
</g>
<!-- node_2658814370272&#45;&gt;node_2658814372672 -->
<g id="edge16" class="edge">
<title>node_2658814370272&#45;&gt;node_2658814372672</title>
<path fill="none" stroke="black" d="M702.11,-442.92C701.77,-435.25 701.39,-426.76 701.03,-418.56"/>
<polygon fill="black" stroke="black" points="704.53,-418.61 700.59,-408.78 697.54,-418.93 704.53,-418.61"/>
</g>
<!-- node_2658814370128 -->
<g id="node28" class="node">
<title>node_2658814370128</title>
<polygon fill="none" stroke="black" points="969.06,-398.77 813.56,-398.77 813.56,-359.27 969.06,-359.27 969.06,-398.77"/>
<text text-anchor="middle" x="891.31" y="-381.47" font-family="Times New Roman,serif" font-size="14.00">ExNode# 13, h: 5, s: 1</text>
<text text-anchor="middle" x="891.31" y="-365.72" font-family="Times New Roman,serif" font-size="14.00">Feature: 1 &gt; Value: 34.63</text>
</g>
<!-- node_2658814370272&#45;&gt;node_2658814370128 -->
<g id="edge27" class="edge">
<title>node_2658814370272&#45;&gt;node_2658814370128</title>
<path fill="none" stroke="black" d="M752.22,-446.5C779.52,-433.45 813.47,-417.22 841,-404.07"/>
<polygon fill="black" stroke="black" points="842.33,-407.31 849.84,-399.84 839.31,-400.99 842.33,-407.31"/>
</g>
<!-- node_2658814369840 -->
<g id="node18" class="node">
<title>node_2658814369840</title>
<ellipse fill="none" stroke="black" cx="642.31" cy="-287.15" rx="96.7" ry="27.93"/>
<text text-anchor="middle" x="642.31" y="-289.6" font-family="Times New Roman,serif" font-size="14.00">inNode# 7, Feature: 0</text>
<text text-anchor="middle" x="642.31" y="-273.85" font-family="Times New Roman,serif" font-size="14.00">Value: 31.99</text>
</g>
<!-- node_2658814372672&#45;&gt;node_2658814369840 -->
<g id="edge17" class="edge">
<title>node_2658814372672&#45;&gt;node_2658814369840</title>
<path fill="none" stroke="black" d="M682.21,-351.05C676.97,-342.79 671.11,-333.56 665.53,-324.76"/>
<polygon fill="black" stroke="black" points="668.53,-322.94 660.21,-316.37 662.61,-326.69 668.53,-322.94"/>
</g>
<!-- node_2658814363984 -->
<g id="node27" class="node">
<title>node_2658814363984</title>
<polygon fill="none" stroke="black" points="919.44,-306.9 757.19,-306.9 757.19,-267.4 919.44,-267.4 919.44,-306.9"/>
<text text-anchor="middle" x="838.31" y="-289.6" font-family="Times New Roman,serif" font-size="14.00">ExNode# 12, h: 6, s: 1</text>
<text text-anchor="middle" x="838.31" y="-273.85" font-family="Times New Roman,serif" font-size="14.00">Feature: 0 &gt; Value: 199.80</text>
</g>
<!-- node_2658814372672&#45;&gt;node_2658814363984 -->
<g id="edge26" class="edge">
<title>node_2658814372672&#45;&gt;node_2658814363984</title>
<path fill="none" stroke="black" d="M738.03,-352.98C757.05,-340.69 779.92,-325.9 799.01,-313.56"/>
<polygon fill="black" stroke="black" points="800.84,-316.54 807.34,-308.18 797.04,-310.67 800.84,-316.54"/>
</g>
<!-- node_2658814373968 -->
<g id="node19" class="node">
<title>node_2658814373968</title>
<ellipse fill="none" stroke="black" cx="537.31" cy="-195.29" rx="96.7" ry="27.93"/>
<text text-anchor="middle" x="537.31" y="-197.74" font-family="Times New Roman,serif" font-size="14.00">inNode# 5, Feature: 1</text>
<text text-anchor="middle" x="537.31" y="-181.99" font-family="Times New Roman,serif" font-size="14.00">Value: &#45;65.91</text>
</g>
<!-- node_2658814369840&#45;&gt;node_2658814373968 -->
<g id="edge18" class="edge">
<title>node_2658814369840&#45;&gt;node_2658814373968</title>
<path fill="none" stroke="black" d="M611.94,-260.16C600.73,-250.57 587.88,-239.56 576.03,-229.42"/>
<polygon fill="black" stroke="black" points="578.64,-227.05 568.76,-223.21 574.09,-232.37 578.64,-227.05"/>
</g>
<!-- node_2658814371424 -->
<g id="node24" class="node">
<title>node_2658814371424</title>
<ellipse fill="none" stroke="black" cx="748.31" cy="-195.29" rx="96.7" ry="27.93"/>
<text text-anchor="middle" x="748.31" y="-197.74" font-family="Times New Roman,serif" font-size="14.00">inNode# 6, Feature: 0</text>
<text text-anchor="middle" x="748.31" y="-181.99" font-family="Times New Roman,serif" font-size="14.00">Value: 63.99</text>
</g>
<!-- node_2658814369840&#45;&gt;node_2658814371424 -->
<g id="edge23" class="edge">
<title>node_2658814369840&#45;&gt;node_2658814371424</title>
<path fill="none" stroke="black" d="M672.69,-260.4C684.11,-250.72 697.26,-239.58 709.35,-229.32"/>
<polygon fill="black" stroke="black" points="711.41,-232.16 716.78,-223.03 706.89,-226.82 711.41,-232.16"/>
</g>
<!-- node_2658814363552 -->
<g id="node20" class="node">
<title>node_2658814363552</title>
<ellipse fill="none" stroke="black" cx="351.31" cy="-103.43" rx="96.7" ry="27.93"/>
<text text-anchor="middle" x="351.31" y="-105.88" font-family="Times New Roman,serif" font-size="14.00">inNode# 4, Feature: 1</text>
<text text-anchor="middle" x="351.31" y="-90.13" font-family="Times New Roman,serif" font-size="14.00">Value: &#45;173.93</text>
</g>
<!-- node_2658814373968&#45;&gt;node_2658814363552 -->
<g id="edge19" class="edge">
<title>node_2658814373968&#45;&gt;node_2658814363552</title>
<path fill="none" stroke="black" d="M488.93,-170.92C464.9,-159.31 435.66,-145.18 410.33,-132.94"/>
<polygon fill="black" stroke="black" points="411.99,-129.86 401.46,-128.66 408.94,-136.16 411.99,-129.86"/>
</g>
<!-- node_2658814366192 -->
<g id="node23" class="node">
<title>node_2658814366192</title>
<polygon fill="none" stroke="black" points="626.31,-123.18 466.31,-123.18 466.31,-83.68 626.31,-83.68 626.31,-123.18"/>
<text text-anchor="middle" x="546.31" y="-105.88" font-family="Times New Roman,serif" font-size="14.00">ExNode# 9, h: 8, s: 1</text>
<text text-anchor="middle" x="546.31" y="-90.13" font-family="Times New Roman,serif" font-size="14.00">Feature: 1 &gt; Value: &#45;65.91</text>
</g>
<!-- node_2658814373968&#45;&gt;node_2658814366192 -->
<g id="edge22" class="edge">
<title>node_2658814373968&#45;&gt;node_2658814366192</title>
<path fill="none" stroke="black" d="M540.01,-167.33C541.04,-157.11 542.21,-145.41 543.26,-134.9"/>
<polygon fill="black" stroke="black" points="546.72,-135.47 544.24,-125.17 539.76,-134.77 546.72,-135.47"/>
</g>
<!-- node_2658814367056 -->
<g id="node21" class="node">
<title>node_2658814367056</title>
<polygon fill="none" stroke="black" points="343.56,-39.5 173.06,-39.5 173.06,0 343.56,0 343.56,-39.5"/>
<text text-anchor="middle" x="258.31" y="-22.2" font-family="Times New Roman,serif" font-size="14.00">ExNode# 7, h: 9, s: 1</text>
<text text-anchor="middle" x="258.31" y="-6.45" font-family="Times New Roman,serif" font-size="14.00"> Feature: 1 &lt; Value: &#45;173.93</text>
</g>
<!-- node_2658814363552&#45;&gt;node_2658814367056 -->
<g id="edge20" class="edge">
<title>node_2658814363552&#45;&gt;node_2658814367056</title>
<path fill="none" stroke="black" d="M321.63,-76.36C311.08,-67.1 299.2,-56.66 288.6,-47.35"/>
<polygon fill="black" stroke="black" points="291.02,-44.82 281.19,-40.85 286.4,-50.08 291.02,-44.82"/>
</g>
<!-- node_2658814370560 -->
<g id="node22" class="node">
<title>node_2658814370560</title>
<polygon fill="none" stroke="black" points="528.69,-39.5 361.94,-39.5 361.94,0 528.69,0 528.69,-39.5"/>
<text text-anchor="middle" x="445.31" y="-22.2" font-family="Times New Roman,serif" font-size="14.00">ExNode# 8, h: 9, s: 1</text>
<text text-anchor="middle" x="445.31" y="-6.45" font-family="Times New Roman,serif" font-size="14.00">Feature: 1 &gt; Value: &#45;173.93</text>
</g>
<!-- node_2658814363552&#45;&gt;node_2658814370560 -->
<g id="edge21" class="edge">
<title>node_2658814363552&#45;&gt;node_2658814370560</title>
<path fill="none" stroke="black" d="M381.05,-76.59C391.73,-67.31 403.78,-56.84 414.54,-47.49"/>
<polygon fill="black" stroke="black" points="416.82,-50.15 422.07,-40.94 412.23,-44.86 416.82,-50.15"/>
</g>
<!-- node_2658814369984 -->
<g id="node25" class="node">
<title>node_2658814369984</title>
<polygon fill="none" stroke="black" points="819.94,-123.18 660.69,-123.18 660.69,-83.68 819.94,-83.68 819.94,-123.18"/>
<text text-anchor="middle" x="740.31" y="-105.88" font-family="Times New Roman,serif" font-size="14.00">ExNode# 10, h: 8, s: 1</text>
<text text-anchor="middle" x="740.31" y="-90.13" font-family="Times New Roman,serif" font-size="14.00"> Feature: 0 &lt; Value: 63.99</text>
</g>
<!-- node_2658814371424&#45;&gt;node_2658814369984 -->
<g id="edge24" class="edge">
<title>node_2658814371424&#45;&gt;node_2658814369984</title>
<path fill="none" stroke="black" d="M745.91,-167.33C745,-157.11 743.96,-145.41 743.02,-134.9"/>
<polygon fill="black" stroke="black" points="746.53,-134.82 742.16,-125.17 739.56,-135.45 746.53,-134.82"/>
</g>
<!-- node_2658814367392 -->
<g id="node26" class="node">
<title>node_2658814367392</title>
<polygon fill="none" stroke="black" points="993.06,-123.18 837.56,-123.18 837.56,-83.68 993.06,-83.68 993.06,-123.18"/>
<text text-anchor="middle" x="915.31" y="-105.88" font-family="Times New Roman,serif" font-size="14.00">ExNode# 11, h: 8, s: 1</text>
<text text-anchor="middle" x="915.31" y="-90.13" font-family="Times New Roman,serif" font-size="14.00">Feature: 0 &gt; Value: 63.99</text>
</g>
<!-- node_2658814371424&#45;&gt;node_2658814367392 -->
<g id="edge25" class="edge">
<title>node_2658814371424&#45;&gt;node_2658814367392</title>
<path fill="none" stroke="black" d="M793.07,-170.21C816.82,-157.43 845.95,-141.75 869.82,-128.91"/>
<polygon fill="black" stroke="black" points="871.21,-132.14 878.36,-124.31 867.9,-125.97 871.21,-132.14"/>
</g>
<!-- node_2658814370704 -->
<g id="node30" class="node">
<title>node_2658814370704</title>
<polygon fill="none" stroke="black" points="998.56,-490.63 828.06,-490.63 828.06,-451.13 998.56,-451.13 998.56,-490.63"/>
<text text-anchor="middle" x="913.31" y="-473.33" font-family="Times New Roman,serif" font-size="14.00">ExNode# 14, h: 4, s: 1</text>
<text text-anchor="middle" x="913.31" y="-457.58" font-family="Times New Roman,serif" font-size="14.00"> Feature: 1 &lt; Value: &#45;351.69</text>
</g>
<!-- node_2658814370032&#45;&gt;node_2658814370704 -->
<g id="edge29" class="edge">
<title>node_2658814370032&#45;&gt;node_2658814370704</title>
<path fill="none" stroke="black" d="M917.51,-534.78C916.83,-524.56 916.05,-512.86 915.35,-502.34"/>
<polygon fill="black" stroke="black" points="918.86,-502.37 914.7,-492.62 911.87,-502.83 918.86,-502.37"/>
</g>
<!-- node_2658814365952 -->
<g id="node31" class="node">
<title>node_2658814365952</title>
<polygon fill="none" stroke="black" points="1183.69,-490.63 1016.94,-490.63 1016.94,-451.13 1183.69,-451.13 1183.69,-490.63"/>
<text text-anchor="middle" x="1100.31" y="-473.33" font-family="Times New Roman,serif" font-size="14.00">ExNode# 15, h: 4, s: 1</text>
<text text-anchor="middle" x="1100.31" y="-457.58" font-family="Times New Roman,serif" font-size="14.00">Feature: 1 &gt; Value: &#45;351.69</text>
</g>
<!-- node_2658814370032&#45;&gt;node_2658814365952 -->
<g id="edge30" class="edge">
<title>node_2658814370032&#45;&gt;node_2658814365952</title>
<path fill="none" stroke="black" d="M967.34,-537.89C993.42,-524.95 1025.57,-508.98 1051.73,-496"/>
<polygon fill="black" stroke="black" points="1053.04,-499.25 1060.45,-491.67 1049.93,-492.98 1053.04,-499.25"/>
</g>
</g>
</svg>
